<svg width="597" height="400" viewBox="0 0 597 400" fill="none" xmlns="http://www.w3.org/2000/svg">
<g clip-path="url(#clip0_6842_91)">
<path d="M105.784 308.736C104.94 307.312 101.287 308.836 100.616 307.544C99.9458 306.257 103.34 304.295 105.279 299.814C105.629 299.006 107.832 293.914 106.201 292.343C103.109 289.365 88.9608 301.655 84.0108 297.633C82.9238 296.751 82.1638 294.988 78.8758 292.127C77.5678 290.989 76.7758 290.475 76.0108 290.667C74.9248 290.937 74.8378 292.392 73.6738 295.251C71.9268 299.538 70.8938 299.279 69.8748 302.7C69.1198 305.239 69.2918 306.715 68.4028 307.003C67.1448 307.41 65.9868 304.716 64.3928 304.958C62.7648 305.204 61.7808 308.34 61.4708 310.688C60.8868 315.094 62.5058 318.001 63.4018 321.058C64.3768 324.38 64.9548 329.433 62.7048 336.586L40.4268 399.352C45.3458 386.472 59.5858 351.166 65.5698 338.047C67.2968 334.259 69.2038 330.417 73.1198 328.901C76.8908 327.441 82.0698 328.313 88.6698 326.723C89.4418 326.537 91.5808 325.993 91.8498 324.734C92.0728 323.694 90.8148 323.114 91.0078 322.139C91.2678 320.832 93.7418 320.816 96.7838 319.308C98.9278 318.244 100.264 316.98 101.413 315.892C101.759 315.565 106.908 310.631 105.784 308.736Z" fill="#F2F2F2"/>
<path d="M18.1389 341.778C17.1969 341.782 16.8909 344.014 16.0629 343.971C15.2379 343.928 15.2539 341.697 13.6149 339.452C13.3189 339.047 11.4549 336.497 10.2139 336.844C7.85993 337.502 9.80993 347.992 6.40693 349.262C5.66093 349.54 4.57693 349.404 2.22393 350.193C1.28793 350.507 0.806933 350.747 0.679933 351.178C0.499933 351.789 1.18793 352.251 2.25493 353.648C3.85493 355.742 3.42993 356.174 4.81493 357.661C5.84393 358.764 6.61793 359.106 6.50293 359.625C6.33893 360.36 4.68293 360.151 4.34193 361.004C3.99293 361.874 5.24793 363.261 6.31093 364.091C8.30493 365.648 10.1989 365.693 11.9579 366.135C13.8699 366.615 16.5169 367.789 19.3779 370.958L43.7559 400C38.8539 393.87 25.6349 376.694 20.9219 369.972C19.5619 368.032 18.2259 365.987 18.6119 363.627C18.9829 361.355 20.9049 359.065 22.0289 355.367C22.1609 354.934 22.5109 353.727 21.9709 353.232C21.5249 352.822 20.8759 353.272 20.4539 352.897C19.8869 352.392 20.5939 351.173 20.7309 349.245C20.8279 347.885 20.5929 346.865 20.3909 345.988C20.3289 345.723 19.3929 341.772 18.1389 341.778ZM36.9389 345.998L36.3709 340.93L36.6309 340.546C37.8309 338.769 38.4419 337.034 38.4499 335.387C38.4499 335.125 38.4389 334.864 38.4259 334.597C38.3769 333.54 38.3159 332.226 39.0019 330.694C39.3859 329.84 40.4649 327.862 42.0869 328.107C42.5239 328.168 42.8549 328.369 43.1049 328.604C43.1419 328.544 43.1799 328.486 43.2209 328.423C43.7259 327.652 44.1259 327.321 44.5109 327.003C44.8079 326.758 45.1129 326.506 45.5929 325.909C45.8029 325.647 45.9669 325.417 46.1059 325.224C46.5259 324.639 47.0739 323.942 48.0399 323.954C49.0729 324.003 49.6139 324.857 49.9719 325.422C50.6119 326.431 50.9019 327.157 51.0939 327.639C51.1639 327.816 51.2439 328.014 51.2839 328.075C51.6169 328.565 54.3219 328.107 55.3419 327.94C57.6309 327.559 59.6119 327.228 60.4279 328.672C61.0129 329.705 60.5779 331.07 59.0979 332.84C58.6369 333.39 58.1459 333.809 57.7099 334.137C58.0709 334.352 58.3939 334.683 58.5249 335.201C58.8339 336.43 57.7779 337.661 55.3879 338.865C54.7949 339.165 53.9959 339.567 52.8759 339.761C52.4102 339.836 51.9396 339.877 51.4679 339.885C51.4589 340.12 51.4039 340.375 51.2609 340.637C50.8409 341.407 49.9669 341.775 48.6509 341.687C47.2019 341.611 46.0089 341.334 44.9569 341.092C44.0369 340.882 43.2469 340.702 42.6249 340.744C41.4719 340.837 40.5839 341.76 39.5409 342.957L36.9389 345.998ZM39.5719 315.823L34.8139 317.657L34.3759 317.504C32.3529 316.794 30.5199 316.642 28.9249 317.052C28.6709 317.118 28.4209 317.196 28.1659 317.275C27.1559 317.591 25.8999 317.983 24.2449 317.709C23.3209 317.554 21.1349 317.012 20.9599 315.38C20.9153 314.996 20.993 314.608 21.1819 314.27L20.9779 314.204C20.1039 313.911 19.6829 313.608 19.2779 313.315C18.9649 313.091 18.6439 312.859 17.9449 312.547C17.6379 312.409 17.3749 312.309 17.1519 312.224C16.4799 311.967 15.6659 311.614 15.4319 310.675C15.2179 309.664 15.9069 308.925 16.3629 308.435C16.9253 307.824 17.5485 307.271 18.2229 306.786C18.3759 306.674 18.5469 306.546 18.5959 306.492C18.9859 306.046 17.8559 303.545 17.4359 302.602C16.4869 300.484 15.6649 298.652 16.8549 297.496C17.7049 296.668 19.1359 296.742 21.2229 297.726C21.8729 298.032 22.4029 298.4 22.8299 298.739C22.9469 298.335 23.1839 297.939 23.6529 297.68C24.7629 297.07 26.2209 297.78 27.9929 299.786C28.4329 300.284 29.0249 300.955 29.4959 301.989C29.7169 302.476 29.8589 302.929 29.9739 303.319C30.2039 303.268 30.4639 303.257 30.7529 303.329C31.6049 303.539 32.1819 304.291 32.4299 305.587C32.7249 307.007 32.7599 308.232 32.7919 309.311C32.8219 310.253 32.8499 311.064 33.0479 311.655C33.4299 312.746 34.5479 313.372 35.9699 314.077L39.5719 315.823ZM36.9389 300.892L36.3709 295.823L36.6309 295.439C37.8309 293.662 38.4419 291.927 38.4499 290.28C38.4499 290.019 38.4389 289.757 38.4259 289.49C38.3769 288.433 38.3159 287.119 39.0019 285.587C39.3859 284.733 40.4649 282.755 42.0869 283C42.5239 283.061 42.8549 283.262 43.1049 283.497L43.2209 283.316C43.7259 282.545 44.1259 282.214 44.5109 281.896C44.8079 281.652 45.1129 281.4 45.5929 280.802C45.8029 280.541 45.9669 280.31 46.1059 280.117C46.5259 279.532 47.0739 278.835 48.0399 278.847C49.0729 278.896 49.6139 279.75 49.9719 280.315C50.6119 281.324 50.9019 282.05 51.0939 282.533C51.1639 282.709 51.2439 282.907 51.2839 282.968C51.6169 283.458 54.3219 283 55.3419 282.834C57.6309 282.452 59.6119 282.121 60.4279 283.565C61.0129 284.598 60.5779 285.964 59.0979 287.733C58.6369 288.283 58.1459 288.702 57.7099 289.03C58.0709 289.245 58.3939 289.576 58.5249 290.094C58.8339 291.323 57.7779 292.554 55.3879 293.758C54.7949 294.058 53.9959 294.46 52.8759 294.654C52.4102 294.729 51.9396 294.77 51.4679 294.778C51.4589 295.013 51.4039 295.268 51.2609 295.53C50.8409 296.3 49.9669 296.668 48.6509 296.58C47.2019 296.504 46.0089 296.227 44.9569 295.985C44.0369 295.775 43.2469 295.595 42.6249 295.637C41.4719 295.73 40.5839 296.653 39.5409 297.85L36.9389 300.892Z" fill="#F2F2F2"/>
<path d="M42.1239 399.27L41.0619 398.604L39.8239 398.746C39.8039 398.631 39.7369 398.366 39.6349 397.953C39.0809 395.687 37.3909 388.79 35.9819 377.93C34.9906 370.244 34.4377 362.509 34.3259 354.76C34.2109 346.953 34.5809 341.043 34.8759 336.293C35.1009 332.71 35.3719 329.299 35.6389 325.975C36.3489 317.097 37.0179 308.71 36.5199 299.425C36.4099 297.353 36.1789 293.038 33.6579 288.447C32.1959 285.785 30.1819 283.421 27.6709 281.424L29.2319 279.461C32.0039 281.669 34.2319 284.287 35.8559 287.243C38.6499 292.333 38.9019 297.035 39.0239 299.293C39.5299 308.743 38.8539 317.21 38.1359 326.173C37.8719 329.485 37.5999 332.881 37.3779 336.449C37.0839 341.155 36.7179 347.014 36.8319 354.72C36.9449 362.422 37.4949 370.12 38.4659 377.607C39.8579 388.33 41.5229 395.124 42.0699 397.356C42.3619 398.547 42.4229 398.798 42.1239 399.27Z" fill="#F2F2F2"/>
<path d="M23.0749 285.406C22.9719 285.406 22.8679 285.403 22.7629 285.396C20.6289 285.281 18.6529 284.003 16.8889 281.6C16.0609 280.47 15.6379 279.18 14.7939 276.608C14.6629 276.211 14.0269 274.2 13.6399 271.432C13.3869 269.624 13.4179 268.867 13.7769 268.199C14.1749 267.455 14.8179 266.937 15.5429 266.587C15.5085 266.336 15.542 266.081 15.6399 265.847C16.0669 264.803 17.2029 264.94 17.8169 265.006C18.1279 265.045 18.5159 265.096 18.9339 265.074C19.5929 265.042 19.9459 264.847 20.4819 264.553C20.9949 264.271 21.6319 263.922 22.5779 263.728C24.4429 263.339 26.0059 263.868 26.5209 264.041C29.2309 264.944 30.5669 267.051 32.1139 269.491C32.4219 269.981 33.4809 271.762 34.1789 274.205C34.6829 275.967 34.6119 276.75 34.4609 277.332C34.1519 278.529 33.4239 279.214 31.5749 280.727C29.6449 282.31 28.6749 283.103 27.8429 283.585C25.9059 284.703 24.6899 285.405 23.0749 285.405V285.406Z" fill="#F2F2F2"/>
<path d="M583.04 398.13C583.04 398.24 583.018 398.35 582.976 398.451C582.934 398.553 582.872 398.646 582.794 398.724C582.716 398.802 582.623 398.864 582.521 398.906C582.42 398.948 582.31 398.97 582.2 398.97H0V397.29H582.2C582.423 397.29 582.636 397.379 582.794 397.536C582.951 397.694 583.04 397.907 583.04 398.13Z" fill="#E6E6E6"/>
<path d="M414.967 132.595C414.967 132.595 383.627 136.365 388.914 111.586C394.2 86.808 424.173 41.041 424.173 41.041L441.181 50.579L421.654 96.737L430.06 103.369L414.967 132.595Z" fill="#A0616A"/>
<path d="M517.666 102.43L513.25 138.75L402.592 138.208L424.816 99.583L517.666 102.43Z" fill="#39DCF9"/>
<path d="M451.904 42.9707C458.676 33.513 459.22 22.3043 453.118 17.9354C447.017 13.5664 436.581 17.6917 429.809 27.1494C423.037 36.6071 422.493 47.8158 428.595 52.1847C434.696 56.5536 445.132 52.4284 451.904 42.9707Z" fill="#A0616A"/>
<path d="M507.025 398.525V240.901H513.819V398.525H507.025ZM474.413 398.525V240.901H481.207V398.525H474.413Z" fill="#3F3D56"/>
<path d="M291.651 398.525V141.706H298.445V398.526L291.651 398.525Z" fill="#E6E6E6"/>
<path d="M401.037 398.525V240.901H407.831V398.525H401.037ZM375.037 398.525V240.901H381.831V398.525H375.037Z" fill="#3F3D56"/>
<path d="M500.911 237.504H369.709L344.541 273.204L475.093 280.987L500.911 237.504Z" fill="#3F3D56"/>
<path d="M260.667 115.362L261.263 89.472L182.077 95.563L181.672 113.106L260.667 115.362Z" fill="#A0616A"/>
<path d="M207.074 92.47L203.287 101.581L197.848 101.755C197.848 101.755 204.216 103.705 205.986 115.277L200.759 116.844C200.759 116.844 195.741 121.526 186.359 121.072L161.203 118.968L161.107 110.198L178.493 108.189C178.493 108.189 182.367 105.641 163.189 95.162C163.189 95.162 156.836 91.278 162.549 72.094C163.335 69.457 165.707 67.564 168.458 67.504C169.976 67.471 171.398 68.017 171.966 69.902C173.411 74.702 171.949 79.486 175.921 82.482C179.892 85.477 207.074 92.47 207.074 92.47ZM491.092 214.34C491.092 214.34 463.77 260.81 401.946 252.435C387.234 250.442 374.29 241.695 366.916 228.809C352.663 203.903 331.02 160.294 338.036 135.601L233.474 115.644L225.236 90.25L338.399 75.55C343.293 74.9143 348.266 75.7466 352.687 77.9413C357.108 80.1359 360.777 83.594 363.229 87.877L418.353 184.145L434.787 185.94L491.092 214.34Z" fill="#2F2E41"/>
<path d="M262.731 125.96L261.242 100.106L182.803 112.548L183.811 130.067L262.731 125.96Z" fill="#A0616A"/>
<path d="M207.47 107.454L204.429 116.841L199.021 117.451C199.021 117.451 205.526 118.883 208.221 130.275L203.137 132.257C203.137 132.257 198.511 137.328 189.123 137.63L163.88 137.557L163.078 128.823L180.246 125.422C180.246 125.422 183.903 122.57 163.944 113.669C163.944 113.669 157.3 110.307 161.451 90.7259C162.021 88.0359 164.234 85.9559 166.971 85.6759C168.481 85.5209 169.943 85.9499 170.661 87.7839C172.487 92.4509 171.414 97.3379 175.614 100.004C179.814 102.671 207.47 107.454 207.47 107.454ZM500.372 206.08C500.372 206.08 476.877 254.596 414.581 251.223C399.756 250.42 386.151 242.743 377.763 230.492C361.553 206.813 336.471 165.087 341.478 139.909L235.65 128.429L225.395 103.781L337.008 80.0239C341.836 78.9965 346.86 79.4261 351.443 81.2581C356.026 83.09 359.961 86.2419 362.75 90.3139L425.44 181.834L441.965 182.301L500.372 206.08Z" fill="#2F2E41"/>
<path d="M428.754 1.20599L423.319 5.28299L451.854 44.689L457.289 43.33L428.754 1.20599Z" fill="#3F3D56"/>
<path d="M502.95 88.712L534.202 87.354L547.791 148.501C547.791 148.501 519.255 255.848 485.284 251.772C485.284 251.772 464.222 236.145 464.222 230.71C464.222 225.275 435.687 211.686 435.687 211.686L428.893 188.586L449.275 157.333C449.275 157.333 457.428 132.874 484.605 119.286L502.949 88.712H502.95Z" fill="#39DCF9"/>
<path d="M324.263 136.271H46.3818V143.066H182.265V398.526H189.059V143.066H324.263V136.271Z" fill="#E6E6E6"/>
<path d="M519.255 83.277C539.518 83.277 555.943 66.8512 555.943 46.589C555.943 26.3268 539.518 9.901 519.255 9.901C498.993 9.901 482.567 26.3268 482.567 46.589C482.567 66.8512 498.993 83.277 519.255 83.277Z" fill="#A0616A"/>
<path d="M391.333 93.468L365.707 103.659L415.984 170.242L433.649 156.654L391.333 93.468Z" fill="#E6E6E6"/>
<path d="M491.4 221.198C491.4 221.198 481.887 251.296 461.505 236.248C441.123 221.2 411.822 174.998 411.822 174.998L427.534 163.448L461.504 200.297L471.017 195.381L491.399 221.198H491.4Z" fill="#A0616A"/>
<path d="M506.346 115.21L537.599 134.233L491.399 234.787L461.505 194.022L506.346 115.21Z" fill="#39DCF9"/>
<path d="M423.797 175.573C430.296 171.821 430.85 160.613 425.034 150.539C419.218 140.465 409.234 135.341 402.735 139.093C396.236 142.845 395.683 154.053 401.499 164.127C407.315 174.201 417.298 179.325 423.797 175.573Z" fill="#A0616A"/>
<path d="M523.267 157.67C532.683 126.802 542.787 117.033 553.412 123.15C561.498 127.804 563.932 138.4 559.192 146.438C547.113 166.926 522.222 213.866 527.408 244.978C527.408 244.978 535.561 288.46 470.338 288.46C405.113 288.46 342.608 273.513 342.608 273.513L376.578 268.078L453.831 273.596C471.482 274.856 486.358 259.754 484 242.216C483.921 241.629 483.829 241.044 483.722 240.461C479.849 219.16 523.267 157.671 523.267 157.671V157.67Z" fill="#3F3D56"/>
<path d="M505.504 31.38C502.507 39.771 509.093 48.485 517.984 47.893L518.196 47.878C521.102 51.5103 522.718 56.0053 522.791 60.6564C522.863 65.3074 521.388 69.8507 518.597 73.572C518.126 83.437 519.671 93.2945 523.139 102.542L532.882 128.526L547.882 121.526L555.001 140.526L596.882 118.95L571.5 61.84L563.754 30.856C558.244 8.81197 535.757 -4.45703 513.796 1.37597L496.948 5.85197C483.637 9.38697 475.975 23.324 480.122 36.457L505.505 31.381" fill="#2F2E41"/>
</g>
<defs>
<clipPath id="clip0_6842_91">
<rect width="596.882" height="400.001" fill="white"/>
</clipPath>
</defs>
</svg>
