<svg width="752" height="684" viewBox="0 0 752 684" fill="none" xmlns="http://www.w3.org/2000/svg">
<g clip-path="url(#clip0_6842_147)">
<path d="M650.144 579.067H99.1436V485.524H107.644V415.898C107.662 399.494 114.187 383.766 125.786 372.167C137.386 360.567 153.113 354.042 169.518 354.024H580.77C597.174 354.042 612.901 360.567 624.501 372.167C636.1 383.766 642.625 399.494 642.644 415.898V485.524H650.144V579.067Z" fill="#E4E4E4"/>
<path d="M665.073 682.024H637.644V681.524C637.616 657.265 627.967 634.008 610.814 616.854C593.66 599.701 570.403 590.052 546.144 590.024H203.144C178.885 590.052 155.628 599.701 138.474 616.854C121.32 634.008 111.671 657.265 111.644 681.524V682.024H84.2148C77.9656 682.017 71.9745 679.531 67.5558 675.112C63.1371 670.693 60.6517 664.702 60.6448 658.453V505.542C52.6788 501.042 46.2008 476.602 50.4088 457.082C53.0488 444.834 60.6728 430.041 81.9938 429.125C102.75 428.232 118.156 447.718 119.532 466.475C120.278 476.346 117.379 486.147 111.384 494.024H111.644V515.838C156.653 501.414 201.724 494.075 245.618 494.024C290.534 494.068 335.138 501.491 377.648 515.997C466.032 487.41 553.501 486.854 637.644 514.35V494.024H637.904C631.909 486.147 629.01 476.346 629.756 466.475C631.266 445.902 648.095 429.146 667.272 429.125H667.335C689.949 429.125 697.947 442.738 700.675 454.165C705.504 474.387 696.64 501.005 688.645 505.541V658.453C688.638 664.702 686.152 670.694 681.733 675.112C677.314 679.531 671.322 682.017 665.073 682.024Z" fill="#CACACA"/>
<path d="M511.829 641.106L525.069 650.564L567.85 603.997L548.309 590.039L511.829 641.106Z" fill="#FFB6B6"/>
<path d="M511.54 634.371L515.267 637.033L534.043 641.51L537.614 652.997C542.02 656.145 544.997 660.915 545.887 666.258C546.777 671.6 545.509 677.077 542.361 681.484L541.975 682.024L499.285 651.528L511.54 634.371ZM601.548 516.433H504.33C495.261 516.433 486.564 512.83 480.152 506.418C473.739 500.006 470.137 491.308 470.137 482.24C470.137 473.171 473.739 464.474 480.152 458.062C486.564 451.649 495.261 448.047 504.33 448.047H601.547C610.615 448.047 619.312 451.649 625.725 458.062C632.137 464.474 635.74 473.171 635.74 482.24C635.74 491.308 632.137 500.006 625.725 506.418C619.312 512.83 610.616 516.433 601.548 516.433Z" fill="#2F2E41"/>
<path d="M553.851 277.668L569.532 289.608L588.443 295.42C588.443 295.42 596.261 405.391 603.306 412.436C610.351 419.481 603.996 419.67 605.412 428.821C606.828 437.972 610.268 456.731 610.268 456.731C562.718 481.901 521.725 482.576 488.797 453.123C488.375 451.301 488.589 449.389 489.403 447.706C490.217 446.022 491.582 444.667 493.272 443.865C499.4 440.614 487.622 425.436 492.631 422.898C497.64 420.36 490.595 398.347 490.595 398.347L495.215 352.417L491.565 345.075L500.475 300.15L515.935 294.504L522.11 279.624L553.851 277.668Z" fill="#EC4699"/>
<path d="M563.675 174.996C563.604 176.982 563.97 178.959 564.747 180.788C565.523 182.618 566.691 184.255 568.169 185.583C569.646 186.912 571.397 187.901 573.298 188.48C575.199 189.059 577.204 189.215 579.172 188.935L601.272 231.89L613.584 210.014L590.71 172.577C590.02 169.303 588.154 166.396 585.465 164.406C582.775 162.416 579.449 161.482 576.117 161.78C572.785 162.079 569.678 163.589 567.385 166.025C565.092 168.46 563.771 171.652 563.675 174.996Z" fill="#FFB6B6"/>
<path d="M600.892 185.504L648.292 258.968L648.135 259.306C647.956 259.693 637.222 282.876 626.822 304.108C625.22 307.378 623.627 310.602 622.081 313.688C621.413 315.021 620.756 316.326 620.109 317.602C615.74 326.214 611.924 333.332 609.646 336.712C604.607 344.357 597.104 350.049 588.385 352.842L588.165 352.898L587.956 352.81C583.691 351.01 580.166 347.811 577.963 343.74C575.761 339.668 575.011 334.968 575.839 330.413C579.95 308.444 589.111 287.731 602.6 269.909L610.284 259.78L583.581 201.723L600.892 185.504Z" fill="#EC4699"/>
<path d="M518.999 165.996C519.069 167.982 518.703 169.959 517.927 171.789C517.15 173.618 515.982 175.255 514.504 176.584C513.027 177.913 511.276 178.902 509.374 179.481C507.473 180.06 505.468 180.215 503.501 179.935L481.401 222.89L469.09 201.014L491.963 163.577C492.651 160.302 494.517 157.394 497.207 155.403C499.897 153.413 503.223 152.478 506.556 152.776C509.889 153.075 512.996 154.585 515.29 157.022C517.583 159.459 518.903 162.651 518.999 165.996Z" fill="#FFB6B6"/>
<path d="M481.782 176.504L434.382 249.968L434.538 250.306C434.718 250.693 445.451 273.876 455.851 295.108C457.418 298.308 458.998 301.502 460.593 304.688C461.26 306.021 461.917 307.326 462.565 308.602C466.933 317.214 470.749 324.332 473.027 327.712C478.066 335.357 485.568 341.049 494.288 343.842L494.508 343.898L494.717 343.81C498.982 342.01 502.506 338.811 504.709 334.74C506.912 330.668 507.661 325.968 506.834 321.413C502.723 299.444 493.562 278.731 480.074 260.909L472.389 250.78L499.093 192.723L481.782 176.504Z" fill="#EC4699"/>
<path d="M537.799 271.023C554.929 271.023 568.816 257.136 568.816 240.006C568.816 222.876 554.929 208.989 537.799 208.989C520.669 208.989 506.782 222.876 506.782 240.006C506.782 257.136 520.669 271.023 537.799 271.023Z" fill="#FFB6B6"/>
<path d="M512.535 213.36C515.085 205.939 527.784 200.791 548.369 200.076C568.954 199.36 574.175 223.619 574.175 223.619C587.917 234.767 559.501 264.612 558.126 263.537L558.744 257.93C559.768 248.642 564.117 241.395 558.586 231.715L553.274 231.776L543.201 233.713C542.573 233.834 541.923 233.745 541.351 233.46C540.778 233.174 540.316 232.709 540.034 232.135C539.752 231.56 539.668 230.91 539.793 230.282C539.917 229.655 540.245 229.086 540.725 228.664L540.817 228.583L540.587 228.229C537.039 229.857 533.382 231.367 529.502 231.595C525.138 231.851 520.366 230.114 518.275 226.274C517.717 225.218 517.376 224.062 517.272 222.872C511.386 225.224 508.695 232.48 508.695 232.48C508.695 232.48 509.985 220.78 512.535 213.36Z" fill="#2F2E41"/>
<path d="M596.305 627.912L583.887 638.426L537.423 595.534L555.749 580.016L596.305 627.912Z" fill="#FFB6B6"/>
<path d="M609.664 637.266L569.625 671.169L569.197 670.663C565.697 666.53 563.983 661.176 564.43 655.779C564.878 650.382 567.451 645.383 571.584 641.883L574.2 630.141L592.544 624.135L596.039 621.175L609.664 637.266ZM519.564 509.311L529.828 487.054C529.712 466.752 512.718 450.264 492.456 451.536C481.172 452.245 470.606 458.556 466.24 477.314C455.014 525.549 565.162 625.927 565.162 625.927L585.402 613.419L586.334 600.205L574.999 593.219L574.989 581.949L564.181 576.823L519.564 509.311Z" fill="#2F2E41"/>
<path d="M586.993 503.182L574.306 484.528C572.752 464.285 588.333 446.455 608.631 446.058C619.935 445.836 630.985 451.257 636.878 469.592C652.032 516.742 550.511 625.836 550.511 625.836L529.311 615.035L527.295 601.942L538.017 594.048L537.101 582.816L547.451 576.818L586.993 503.182Z" fill="#2F2E41"/>
<path d="M542.34 350.423V356.383H522.58V350.423H528.7V336.063L522.98 339.343V332.903L531.78 327.903H536.18V350.423H542.34ZM546.799 352.983C544.919 350.476 543.979 346.85 543.979 342.103C543.979 337.436 544.919 333.856 546.799 331.363C547.798 330.191 549.04 329.249 550.438 328.603C551.837 327.958 553.359 327.623 554.899 327.623C556.439 327.623 557.961 327.958 559.36 328.603C560.758 329.249 562 330.191 562.999 331.363C564.879 333.856 565.819 337.436 565.819 342.103C565.819 346.85 564.879 350.476 562.999 352.983C562.004 354.161 560.763 355.108 559.364 355.757C557.965 356.406 556.441 356.743 554.899 356.743C553.357 356.743 551.833 356.406 550.434 355.757C549.035 355.108 547.795 354.161 546.799 352.983ZM557.659 349.003C558.334 346.769 558.619 344.434 558.499 342.103C558.616 339.818 558.332 337.53 557.659 335.343C557.488 334.743 557.126 334.215 556.628 333.839C556.13 333.463 555.523 333.26 554.899 333.26C554.275 333.26 553.668 333.463 553.17 333.839C552.672 334.215 552.31 334.743 552.139 335.343C551.466 337.53 551.182 339.818 551.299 342.103C551.179 344.434 551.464 346.769 552.139 349.003C552.306 349.607 552.666 350.14 553.164 350.52C553.663 350.899 554.272 351.105 554.899 351.105C555.526 351.105 556.135 350.899 556.634 350.52C557.132 350.14 557.492 349.607 557.659 349.003Z" fill="white"/>
<path d="M331.612 666.195L316.44 666.194L309.221 607.669L331.615 607.67L331.612 666.195Z" fill="#A0616A"/>
<path d="M332.147 682.024L285.487 682.022V681.432C285.488 676.616 287.401 671.997 290.807 668.591C294.213 665.186 298.832 663.272 303.648 663.272H303.65L312.172 656.805L328.074 663.272H332.147V682.024Z" fill="#2F2E41"/>
<path d="M438.972 666.195L454.144 666.194L461.362 607.669L438.968 607.67L438.972 666.195Z" fill="#A0616A"/>
<path d="M438.437 682.024L485.096 682.022V681.432C485.095 676.616 483.181 671.997 479.776 668.591C476.37 665.186 471.751 663.272 466.935 663.272H466.934L458.411 656.805L442.509 663.272H438.436L438.437 682.024ZM308.553 564.662C308.777 561.322 310.559 542.854 310.559 542.854L314.827 503.687L322.349 399.865L322.839 393.069L362.241 385.504L389.17 372.594L421.177 382.827L446.101 392.173C446.101 392.173 446.143 396.173 446.335 401.007C446.591 407.334 447.04 415.09 448.107 417.107C449.888 420.67 449.44 439.8 449.44 439.8C449.44 439.8 451.211 478.721 453.441 482.99C455.671 487.259 456.119 496.144 455.447 497.926C454.775 499.708 457.677 546.45 457.677 546.45C457.677 546.45 465.125 629.165 460.452 641.638C455.779 654.111 438.12 645.94 438.12 645.94C438.12 645.94 438.974 642.611 433.852 641.043C428.73 639.475 413.132 522.188 413.132 522.188C413.132 522.188 410.231 498.139 407.564 491.248C404.897 484.357 402.442 464.99 402.442 464.99C402.442 464.99 385.969 432.94 385.756 425.813C385.756 425.813 383.6 419.144 381.563 426.485C379.526 433.826 373.518 451.408 373.518 451.408L367.661 473.003L360.768 505.266L356.308 532.43C356.308 532.43 349.63 568.481 348.563 570.04C347.496 571.599 348.563 604.533 348.563 604.533C348.563 604.533 343.399 632.582 336.101 637.479C328.803 642.376 309.469 637.557 309.469 637.557C309.469 637.557 308.329 568.001 308.553 564.662Z" fill="#2F2E41"/>
<path d="M325.363 284.766L334.122 307.702L323.314 318.887L328.073 323.144L324.563 329.164L315.408 392.25L365.596 408.796L382.496 390.376L395.822 408.796L453.895 396.461L439.086 316.012V310.753L434.904 300.598V279.099L454.108 215.104L412.989 205.068L397.231 194.226L392.131 209.474L370.419 206.116L369.853 194.662L353.241 208.305L331.092 211.774L314.342 215.104L312.208 219.741L316.475 218.813L323.944 279.145L325.363 284.766Z" fill="#2F2E41"/>
<path d="M359.135 222.839L369.853 194.728L397.231 194.226L406.315 222.839L438.968 405.248C438.968 405.248 338.933 433.106 339.948 399.619C341.015 364.411 345.828 317.642 345.828 317.642L359.135 222.839Z" fill="#3F3D56"/>
<path d="M382.93 186.865C400.741 186.865 415.181 172.426 415.181 154.614C415.181 136.802 400.741 122.363 382.93 122.363C365.118 122.363 350.679 136.802 350.679 154.614C350.679 172.426 365.118 186.865 382.93 186.865Z" fill="#A0616A"/>
<path d="M348.778 131.218C354.028 125.504 360.595 115.043 380.488 110.65C405.067 105.222 416.681 127.426 410.483 127.79C428.608 133.279 416.964 170.787 411.768 167.642C411.724 167.611 411.681 167.578 411.64 167.542C408.846 165.484 406.5 162.878 404.746 159.883C402.993 156.888 401.869 153.566 401.442 150.122L400.456 141.246C400.315 148.468 392.933 149.423 385.393 146.763C385.839 145.18 386.69 143.74 387.862 142.587C389.034 141.433 390.486 140.604 392.076 140.183C387.464 144.437 381.46 147.481 373.072 148.451C374.102 144.466 376.152 141.533 379.363 139.794L379.066 139.502C375.993 141.841 372.791 144.088 369.096 145.147C364.939 146.339 359.958 145.694 357.11 142.44C356.343 141.542 355.764 140.5 355.406 139.374C356.022 145.094 352.186 151.622 349.206 150.501C346.727 150.02 345.282 135.023 348.778 131.218Z" fill="#2F2E41"/>
<path d="M422.694 152.836L452.024 202.181L473.704 191.943C473.704 191.943 436.348 145.286 435.158 143.944C435.668 141.676 435.477 139.307 434.611 137.151C433.745 134.994 432.244 133.151 430.308 131.865C428.371 130.58 426.09 129.913 423.767 129.952C421.443 129.991 419.185 130.734 417.293 132.084C415.401 133.434 413.964 135.326 413.17 137.511C412.377 139.696 412.266 142.07 412.851 144.319C413.437 146.568 414.691 148.587 416.449 150.108C418.206 151.628 420.384 152.58 422.694 152.836Z" fill="#A0616A"/>
<path d="M436.895 275.462L482.415 242.669C485.385 240.53 487.875 237.794 489.728 234.637C491.58 231.48 492.753 227.972 493.172 224.336C493.591 220.7 493.247 217.016 492.162 213.521C491.076 210.025 489.273 206.795 486.868 204.036L454.108 166.457L439.837 185.796L450.837 208.796L429.537 214.412L436.895 275.462Z" fill="#2F2E41"/>
<path d="M358.766 157.474L329.436 206.819L307.757 196.581C307.757 196.581 345.112 149.925 346.302 148.582C345.792 146.314 345.983 143.945 346.849 141.789C347.716 139.632 349.216 137.789 351.152 136.503C353.089 135.218 355.37 134.55 357.694 134.59C360.017 134.629 362.275 135.372 364.167 136.722C366.059 138.072 367.496 139.964 368.29 142.149C369.083 144.334 369.194 146.708 368.609 148.957C368.023 151.206 366.769 153.225 365.011 154.746C363.254 156.266 361.076 157.218 358.766 157.474Z" fill="#A0616A"/>
<path d="M344.566 280.1L299.046 247.307C296.076 245.168 293.586 242.432 291.734 239.275C289.882 236.119 288.708 232.61 288.289 228.974C287.87 225.338 288.214 221.655 289.3 218.16C290.385 214.664 292.188 211.434 294.593 208.675L327.353 171.095L341.624 190.435L330.624 213.435L351.924 219.051L344.566 280.1Z" fill="#2F2E41"/>
<path d="M390.62 270.919C391.648 272.135 392.189 273.688 392.14 275.279C392.175 276.855 391.666 278.394 390.7 279.639C389.657 280.926 388.28 281.902 386.72 282.459C382.95 283.766 378.85 283.766 375.08 282.459C373.52 281.902 372.143 280.926 371.1 279.639C370.133 278.394 369.625 276.855 369.66 275.279C369.607 273.669 370.148 272.096 371.18 270.859C372.309 269.605 373.808 268.743 375.46 268.399C374.011 267.95 372.721 267.096 371.74 265.939C370.836 264.843 370.354 263.46 370.38 262.039C370.352 260.548 370.84 259.093 371.76 257.919C372.747 256.697 374.046 255.764 375.52 255.219C378.997 253.966 382.803 253.966 386.28 255.219C387.753 255.764 389.052 256.697 390.04 257.919C390.96 259.093 391.447 260.548 391.42 262.039C391.445 263.487 390.956 264.897 390.04 266.019C389.089 267.173 387.814 268.016 386.38 268.439C388.013 268.813 389.493 269.679 390.62 270.919ZM384.02 276.999C384.405 276.751 384.719 276.407 384.93 276C385.141 275.592 385.241 275.137 385.22 274.679C385.231 274.216 385.131 273.756 384.93 273.339C384.728 272.922 384.43 272.558 384.06 272.279C383.213 271.458 382.079 270.999 380.9 270.999C379.72 270.999 378.587 271.458 377.74 272.279C377.37 272.558 377.072 272.922 376.87 273.339C376.668 273.756 376.569 274.216 376.58 274.679C376.559 275.137 376.659 275.592 376.869 276C377.08 276.407 377.394 276.751 377.78 276.999C378.736 277.524 379.809 277.799 380.9 277.799C381.991 277.799 383.064 277.524 384.02 276.999ZM378.36 260.659C378.026 260.928 377.762 261.275 377.591 261.668C377.42 262.062 377.348 262.491 377.38 262.919C377.38 264.679 378.553 265.852 380.9 266.439C383.246 265.852 384.419 264.679 384.42 262.919C384.452 262.491 384.379 262.062 384.208 261.668C384.038 261.275 383.774 260.928 383.44 260.659C382.681 260.176 381.8 259.919 380.9 259.919C380 259.919 379.119 260.176 378.36 260.659Z" fill="white"/>
<path d="M30.0803 176.05C30.7798 177.084 31.6974 177.952 32.7687 178.593C33.8399 179.234 35.0386 179.632 36.2804 179.76C37.5222 179.887 38.7769 179.741 39.9561 179.331C41.1353 178.922 42.2102 178.258 43.1053 177.388L70.2193 191.01L68.3723 175.35L42.9073 164.816C41.3458 163.41 39.323 162.626 37.222 162.611C35.1209 162.597 33.0876 163.354 31.507 164.738C29.9264 166.122 28.9083 168.038 28.6455 170.123C28.3828 172.207 28.8936 174.316 30.0813 176.049L30.0803 176.05Z" fill="#9E616A"/>
<path d="M142.25 239.256L128.75 229.946C128.75 229.946 113.29 228.896 110.965 223.982C108.64 219.068 108.248 220.72 105.77 220.132C103.292 219.544 102.012 212.146 97.8566 213.019C88.5086 214.983 44.5446 185.932 49.2896 182.302L52.8166 167.43C56.5434 168.821 60.429 169.743 64.3836 170.173C70.3636 170.719 84.4516 177.55 86.5376 179.791C88.6236 182.032 92.3216 181.162 97.2786 182.338C102.236 183.514 103.971 191.488 112.193 189.366C123.763 186.38 183.696 214.808 190.181 217.461C197.297 220.373 202.267 229.054 202.267 229.054L200.307 237.317L142.25 239.256Z" fill="#EC4699"/>
<path d="M239.681 661.637H251.447L257.046 616.254H239.68L239.681 661.637Z" fill="#9E616A"/>
<path d="M235.84 653.579L254.638 652.457V660.51L272.51 672.853C273.393 673.462 274.058 674.338 274.408 675.352C274.758 676.366 274.774 677.466 274.455 678.49C274.136 679.514 273.497 680.41 272.633 681.045C271.768 681.681 270.724 682.024 269.651 682.023H247.271L243.414 674.057L241.908 682.024H233.47L235.84 653.579Z" fill="#2F2E41"/>
<path d="M92.2109 651.641L103.143 655.993L125.13 615.898L108.996 609.476L92.2109 651.641Z" fill="#9E616A"/>
<path d="M91.6244 642.734L109.504 648.644L106.525 656.126L118.565 674.204C119.161 675.097 119.455 676.157 119.405 677.228C119.355 678.3 118.964 679.328 118.288 680.162C117.613 680.995 116.688 681.591 115.65 681.862C114.612 682.133 113.514 682.065 112.517 681.667L91.7244 673.39L91.0874 664.562L86.7414 671.406L78.9014 668.286L91.6244 642.734ZM215.963 526.592L196.343 435.03L165.705 536.763L117.192 633.233L116.935 633.745L101.567 625.471C99.3984 586.3 104.549 549.594 123.389 517.497L132.309 429.398C132.583 426.388 139.237 355.718 160.309 343.185L166.479 329.115L227.855 313.955L228.078 314.207C233.98 320.841 237.879 329.013 239.321 337.774L257.661 448.874L257.671 448.937L252.754 526.443L259.48 640.789H235.142C220.086 612.458 213.693 574.393 215.963 526.592Z" fill="#2F2E41"/>
<path d="M268.798 142.584C269.733 143.411 270.476 144.432 270.974 145.577C271.472 146.722 271.713 147.962 271.68 149.21C271.647 150.457 271.341 151.683 270.783 152.8C270.225 153.916 269.429 154.897 268.451 155.673L278.473 184.313L263.181 180.468L256.008 153.859C254.814 152.13 254.295 150.022 254.551 147.936C254.807 145.85 255.819 143.931 257.395 142.541C258.972 141.151 261.003 140.388 263.105 140.396C265.206 140.404 267.232 141.182 268.798 142.584Z" fill="#9E616A"/>
<path d="M148.389 358.924C146.736 358.924 145.797 358.599 145.434 357.904C144.9 356.884 145.826 355.552 146.898 354.008C147.645 352.932 149.828 350.793 148.755 350.662C132.473 348.674 140.289 248.293 147.345 235.024C148.779 232.328 147.262 228.192 148.876 223.617C153.286 211.122 159.306 207.282 171.298 199.633C172.271 199.012 173.285 198.363 174.338 197.687C175.702 196.811 175.626 193.907 175.546 190.83C175.456 187.411 175.364 183.876 177.039 181.666L177.149 181.522L177.324 181.482C181.374 180.545 194.999 178.806 203.068 181.494L203.179 181.532L203.262 181.615C205.179 183.531 205.354 187.245 205.522 190.834C205.661 193.782 205.792 196.564 206.876 197.774C215.166 207.014 224.569 206.834 224.664 206.832L225.13 206.819L225.176 207.282C230.988 218.345 226.437 259.43 230.477 284.952C234.582 310.879 269.635 332.95 239.62 336.869C239.685 336.969 239.721 337.084 239.724 337.203C239.728 337.322 239.699 337.44 239.64 337.543C237.827 340.931 154.619 358.923 148.389 358.923V358.924Z" fill="#EC4699"/>
<path d="M284.075 232.492L267.415 240.755C235.314 253.087 218.537 250.083 210.108 245.395C201.114 240.393 199.555 232.724 199.494 232.4L199.488 232.244L201.543 215.966C201.804 213.898 202.502 211.91 203.59 210.132C204.678 208.355 206.131 206.829 207.854 205.656C209.576 204.482 211.528 203.689 213.58 203.327C215.633 202.965 217.739 203.044 219.758 203.558L258.085 213.312L257.386 194.707L258.902 188.007L256.106 179.865L257.252 163.511L271 160.146L285.42 185.976L282.83 193.105L285.271 196.654L285.266 196.818L284.075 232.492Z" fill="#EC4699"/>
<path d="M200.5 245.544V251.144L188.1 274.024H180.1L192.46 251.504H179.34V245.544H200.5Z" fill="white"/>
<path d="M749.94 683.105L1.19 683.412C0.874392 683.412 0.571711 683.287 0.348543 683.064C0.125375 682.84 0 682.538 0 682.222C0 681.906 0.125375 681.604 0.348543 681.381C0.571711 681.158 0.874392 681.032 1.19 681.032L749.94 680.724C750.256 680.724 750.559 680.85 750.782 681.073C751.005 681.296 751.13 681.599 751.13 681.915C751.13 682.23 751.005 682.533 750.782 682.756C750.559 682.98 750.256 683.105 749.94 683.105Z" fill="#CACACA"/>
<path d="M517.483 105.975C526.694 86.391 519.24 63.497 505.931 57.237C492.622 50.977 470.233 59.836 461.022 79.42C452.496 97.547 458.847 118.78 469.779 126.514C469.595 126.568 469.423 126.657 469.273 126.776L466.646 128.94C466.446 129.105 466.291 129.318 466.197 129.56C466.102 129.801 466.071 130.063 466.106 130.32C466.141 130.577 466.241 130.821 466.397 131.028C466.553 131.236 466.759 131.4 466.996 131.505L473.621 134.449C473.858 134.554 474.118 134.597 474.376 134.574C474.634 134.55 474.882 134.461 475.097 134.315C475.311 134.169 475.484 133.97 475.6 133.738C475.716 133.506 475.77 133.248 475.759 132.989L475.604 129.589C475.596 129.471 475.574 129.354 475.539 129.241C488.481 132.798 508.939 124.142 517.483 105.975Z" fill="#CCCCCC"/>
<path d="M509.938 77.888C512.029 83.9542 511.711 90.5916 509.049 96.4302C506.388 102.269 501.587 106.863 495.637 109.264C494.281 109.828 495.363 111.839 496.71 111.278C503.087 108.621 508.224 103.652 511.09 97.3668C513.957 91.0814 514.341 83.9448 512.166 77.388C511.706 76.005 509.476 76.494 509.938 77.888Z" fill="white"/>
<path d="M679.09 171.596C697.727 160.596 704.455 137.478 696.98 124.812C689.505 112.146 666.013 106.863 647.375 117.864C630.124 128.046 623.42 149.169 628.1 161.716C627.917 161.657 627.725 161.634 627.534 161.647L624.146 161.957C623.887 161.981 623.639 162.07 623.425 162.216C623.211 162.362 623.038 162.561 622.922 162.793C622.806 163.025 622.751 163.283 622.763 163.542C622.775 163.802 622.853 164.053 622.99 164.274L626.808 170.437C626.944 170.658 627.135 170.84 627.362 170.966C627.589 171.092 627.844 171.158 628.104 171.158C628.363 171.158 628.618 171.091 628.845 170.964C629.071 170.837 629.262 170.655 629.398 170.434L631.183 167.537C631.243 167.435 631.29 167.326 631.325 167.213C640.02 177.438 661.8 181.801 679.09 171.596Z" fill="#EC4699"/>
<path d="M688.666 144.135C686.979 150.325 682.979 155.632 677.493 158.959C672.007 162.286 665.452 163.38 659.183 162.015C657.745 161.719 657.507 163.99 658.935 164.285C665.701 165.68 672.744 164.465 678.652 160.884C684.56 157.303 688.895 151.621 690.789 144.977C691.187 143.575 689.068 142.723 688.666 144.135Z" fill="white"/>
<path d="M560.456 81.645C558.108 76.4782 557.018 70.8285 557.276 65.1591C557.533 59.4897 559.13 53.962 561.936 49.029C562.736 47.639 563.533 45.957 565.286 45.69C565.949 45.5693 566.633 45.677 567.227 45.9957C567.821 46.3143 568.289 46.8249 568.554 47.444C568.789 48.2675 568.746 49.1453 568.433 49.9421C568.119 50.7389 567.552 51.4103 566.819 51.8527C566.086 52.2951 565.227 52.4839 564.376 52.39C563.525 52.296 562.728 51.9246 562.109 51.333C558.784 48.653 559.206 43.938 559.526 40.143C560.255 31.493 560.243 22.413 556.563 14.363C553.16 6.91501 546.21 0.685007 537.815 0.00400722C536.347 -0.114993 536.264 2.16701 537.725 2.28601C546.05 2.96101 552.564 9.81901 555.331 17.326C556.894 21.8449 557.671 26.5979 557.629 31.379C557.656 33.834 557.543 36.288 557.353 38.734C557.066 41.119 556.992 43.5248 557.13 45.923C557.521 49.836 559.888 54.033 564.12 54.658C568.068 55.241 571.924 51.112 570.856 47.188C570.599 46.3395 570.135 45.5682 569.506 44.9432C568.877 44.3181 568.103 43.859 567.253 43.6068C566.403 43.3547 565.503 43.3175 564.635 43.4985C563.767 43.6795 562.958 44.0731 562.279 44.644C560.796 45.882 559.833 48.008 558.987 49.707C556.433 54.8183 555.058 60.4374 554.964 66.1505C554.869 71.8636 556.058 77.5251 558.441 82.718C559.067 84.048 561.081 82.972 560.456 81.645Z" fill="#CCCCCC"/>
<path d="M215.837 188.06C214.977 186.49 213.497 182 211.837 182.06C210.138 182.134 208.438 181.99 206.777 181.63C206.597 181.6 206.417 181.56 206.247 181.52C199.234 179.77 192.044 178.83 184.817 178.72C178.987 178.64 172.587 179.34 168.517 183.51C164.447 187.68 165.047 196.28 170.657 197.87C151.909 201.116 132.637 196.844 117.017 185.98C107.087 179 99.1266 169.65 90.7066 160.91C82.2866 152.16 73.0066 143.75 61.6566 139.47C50.2966 135.18 36.4066 135.78 27.2566 143.77C16.0966 153.51 15.2366 170.27 15.2266 185.08C15.2166 190.62 16.9466 189.45 21.8366 192.06C26.3766 194.48 31.1466 199.46 33.9166 195.13C36.6866 190.8 37.1766 185.45 37.7466 180.34C38.3066 175.23 39.1366 169.85 42.3766 165.86C47.9466 159 58.9166 158.93 66.6066 163.28C74.2966 167.63 79.4666 175.24 84.3566 182.6C89.2466 189.95 94.4066 197.58 102.087 201.96C112.177 207.71 124.847 206.86 135.377 211.76C142.067 214.88 147.477 220.11 153.027 224.96C158.587 229.81 164.677 234.48 171.887 236.05C179.087 237.63 187.637 235.25 191.177 228.78C194.367 222.93 192.807 215.44 195.647 209.4C197.837 204.74 202.307 201.65 206.337 198.43C207.997 197.1 208.427 201.68 209.837 200.06C213.907 199.25 217.727 191.51 215.837 188.06Z" fill="#3F3D56"/>
<path d="M187.797 179.786C205.248 179.786 219.395 165.639 219.395 148.188C219.395 130.737 205.248 116.59 187.797 116.59C170.346 116.59 156.199 130.737 156.199 148.188C156.199 165.639 170.346 179.786 187.797 179.786Z" fill="#2F2E41"/>
<path d="M190.333 182.391C202.869 182.036 212.744 171.585 212.389 159.049C212.033 146.513 201.583 136.638 189.047 136.993C176.51 137.349 166.636 147.799 166.991 160.335C167.346 172.872 177.797 182.746 190.333 182.391Z" fill="#9E616A"/>
<path d="M189.917 125.065L180.712 125.325C174.91 125.494 169.413 127.958 165.427 132.175C161.44 136.393 159.29 142.02 159.448 147.822L159.454 148.026L159.621 148.131C164.624 151.441 170.53 153.122 176.527 152.941L177.045 152.926L182.131 152.696C182.986 150.493 183.272 148.109 182.963 145.766C183.731 147.987 184.33 150.263 184.756 152.574L207.578 151.535C208.905 151.469 210.155 150.887 211.06 149.913C211.964 148.939 212.453 147.65 212.421 146.321C212.25 140.52 209.784 135.024 205.565 131.039C201.346 127.053 195.718 124.905 189.917 125.065Z" fill="#2F2E41"/>
<path d="M171.574 119.367C169.496 121.929 166.16 122.997 163.162 124.384C157.874 126.885 153.275 130.639 149.765 135.319C146.255 140 143.939 145.465 143.019 151.243C142.312 155.948 142.559 160.79 141.363 165.391C140.175 169.992 137.041 174.561 132.382 175.486C129.23 176.117 126.019 174.984 123.006 173.861C121.348 173.248 119.691 172.633 118.033 172.016C119.621 167.679 121.207 163.341 122.789 159.004C120.166 163.129 117.086 166.947 113.609 170.384C107.669 168.183 101.724 165.981 95.7734 163.78C110.249 163.424 107.38 149.444 110.219 135.254C111.779 127.457 126.788 121.782 129.55 114.327C131.043 110.284 133.663 106.753 137.099 104.152C140.536 101.551 144.646 99.9897 148.942 99.6516C153.239 99.3136 157.542 100.214 161.343 102.245C165.144 104.276 168.284 107.354 170.39 111.114C173.396 112.214 173.613 116.837 171.574 119.367Z" fill="#2F2E41"/>
<path d="M173.021 128.764C179.519 128.764 184.787 123.496 184.787 116.998C184.787 110.5 179.519 105.232 173.021 105.232C166.523 105.232 161.255 110.5 161.255 116.998C161.255 123.496 166.523 128.764 173.021 128.764Z" fill="#2F2E41"/>
</g>
<defs>
<clipPath id="clip0_6842_147">
<rect width="751.131" height="683.412" fill="white"/>
</clipPath>
</defs>
</svg>
