<svg xmlns="http://www.w3.org/2000/svg" data-name="Layer 1" width="751.131" height="683.412"><path d="M650.144 579.067h-551v-93.543h8.5v-69.626a61.944 61.944 0 0 1 61.874-61.874H580.77a61.944 61.944 0 0 1 61.874 61.874v69.626h7.5Z" fill="#e4e4e4"/><path d="M665.073 682.024h-27.429v-.5a91.604 91.604 0 0 0-91.5-91.5h-343a91.604 91.604 0 0 0-91.5 91.5v.5H84.215a23.597 23.597 0 0 1-23.57-23.571V505.542c-7.966-4.5-14.444-28.94-10.236-48.46 2.64-12.248 10.264-27.041 31.585-27.957 20.756-.893 36.162 18.593 37.538 37.35a40.454 40.454 0 0 1-8.148 27.549h.26v21.814c45.009-14.424 90.08-21.763 133.974-21.814a410.048 410.048 0 0 1 132.03 21.973c88.384-28.587 175.853-29.143 259.996-1.647v-20.326h.26a40.454 40.454 0 0 1-8.148-27.549c1.51-20.573 18.339-37.329 37.516-37.35h.063c22.614 0 30.612 13.613 33.34 25.04 4.829 20.222-4.035 46.84-12.03 51.376v152.912a23.597 23.597 0 0 1-23.572 23.57Z" fill="#cacaca"/><path fill="#ffb6b6" d="m511.829 641.106 13.24 9.458 42.781-46.567-19.541-13.958-36.48 51.067z"/><path d="m511.54 634.371 3.727 2.662 18.776 4.477 3.571 11.487h.001a20.422 20.422 0 0 1 4.746 28.487l-.386.54-42.69-30.496ZM601.548 516.433H504.33a34.193 34.193 0 0 1 0-68.386h97.217a34.193 34.193 0 0 1 0 68.386Z" fill="#2f2e41"/><path d="m553.851 277.668 15.681 11.94 18.911 5.812s7.818 109.971 14.863 117.016.69 7.234 2.106 16.385 4.856 27.91 4.856 27.91c-47.55 25.17-88.543 25.845-121.471-3.608a8.202 8.202 0 0 1 4.475-9.258c6.128-3.251-5.65-18.429-.641-20.967s-2.036-24.551-2.036-24.551l4.62-45.93-3.65-7.342 8.91-44.925 15.46-5.646 6.175-14.88Z" fill="#3a3fff"/><path d="M563.675 174.996a13.593 13.593 0 0 0 15.497 13.939l22.1 42.955 12.312-21.876-22.874-37.437a13.667 13.667 0 0 0-27.035 2.42Z" fill="#ffb6b6"/><path d="m600.892 185.504 47.4 73.464-.157.338c-.179.387-10.913 23.57-21.313 44.802-1.602 3.27-3.195 6.494-4.741 9.58q-1.001 2-1.972 3.914c-4.369 8.612-8.185 15.73-10.463 19.11a40.122 40.122 0 0 1-21.261 16.13l-.22.056-.209-.088a20.36 20.36 0 0 1-12.117-22.397 144.22 144.22 0 0 1 26.761-60.504l7.684-10.129-26.703-58.057Z" fill="#3a3fff"/><path d="M518.999 165.996a13.593 13.593 0 0 1-15.498 13.939l-22.1 42.955-12.311-21.876 22.873-37.437a13.667 13.667 0 0 1 27.036 2.42Z" fill="#ffb6b6"/><path d="m481.782 176.504-47.4 73.464.156.338c.18.387 10.913 23.57 21.313 44.802a1217.58 1217.58 0 0 0 4.742 9.58q1 2 1.972 3.914c4.368 8.612 8.184 15.73 10.462 19.11a40.122 40.122 0 0 0 21.261 16.13l.22.056.209-.088a20.36 20.36 0 0 0 12.117-22.397 144.22 144.22 0 0 0-26.76-60.504l-7.685-10.129 26.704-58.057Z" fill="#3a3fff"/><circle cx="537.799" cy="240.006" r="31.017" fill="#ffb6b6"/><path d="M512.535 213.36c2.55-7.421 15.249-12.569 35.834-13.284 20.585-.716 25.806 23.543 25.806 23.543 13.742 11.148-14.674 40.993-16.049 39.918l.618-5.607c1.024-9.288 5.373-16.535-.158-26.215l-5.312.061-10.073 1.937a2.914 2.914 0 0 1-2.476-5.049l.092-.081-.23-.354c-3.548 1.628-7.205 3.138-11.085 3.366-4.364.256-9.136-1.481-11.227-5.321a8.94 8.94 0 0 1-1.003-3.402c-5.886 2.352-8.577 9.608-8.577 9.608s1.29-11.7 3.84-19.12Z" fill="#2f2e41"/><path fill="#ffb6b6" d="m596.305 627.912-12.418 10.514-46.464-42.892 18.326-15.518 40.556 47.896z"/><path d="m609.664 637.266-40.039 33.903-.428-.506a20.422 20.422 0 0 1 2.387-28.78v-.001l2.616-11.741 18.344-6.006 3.495-2.96ZM519.564 509.311l10.264-22.257c-.116-20.302-17.11-36.79-37.372-35.518-11.284.709-21.85 7.02-26.216 25.778-11.226 48.235 98.922 148.613 98.922 148.613l20.24-12.508.932-13.214-11.335-6.986-.01-11.27-10.808-5.126Z" fill="#2f2e41"/><path d="m586.993 503.182-12.687-18.654c-1.554-20.243 14.027-38.073 34.325-38.47 11.304-.222 22.354 5.199 28.247 23.534 15.154 47.15-86.367 156.244-86.367 156.244l-21.2-10.801-2.016-13.093 10.722-7.894-.916-11.232 10.35-5.998Z" fill="#2f2e41"/><path d="M542.34 350.423v5.96h-19.76v-5.96h6.12v-14.36l-5.72 3.28v-6.44l8.8-5h4.4v22.52ZM546.799 352.983q-2.82-3.76-2.82-10.88 0-7 2.82-10.74a10.642 10.642 0 0 1 16.2 0q2.82 3.74 2.82 10.74 0 7.12-2.82 10.88a10.605 10.605 0 0 1-16.2 0Zm10.86-3.98a20.259 20.259 0 0 0 .84-6.9 19.59 19.59 0 0 0-.84-6.76 2.87 2.87 0 0 0-5.52 0 19.59 19.59 0 0 0-.84 6.76 20.259 20.259 0 0 0 .84 6.9 2.863 2.863 0 0 0 5.52 0Z" fill="#fff"/><path fill="#a0616a" d="m331.612 666.195-15.172-.001-7.219-58.525 22.394.001-.003 58.525z"/><path d="m332.147 682.024-46.66-.002v-.59a18.162 18.162 0 0 1 18.161-18.16h.002l8.522-6.467 15.902 6.467h4.073Z" fill="#2f2e41"/><path fill="#a0616a" d="m438.972 666.195 15.172-.001 7.218-58.525-22.394.001.004 58.525z"/><path d="m438.437 682.024 46.659-.002v-.59a18.162 18.162 0 0 0-18.161-18.16h-.001l-8.523-6.467-15.902 6.467h-4.073ZM308.553 564.662c.224-3.34 2.006-21.808 2.006-21.808l4.268-39.167 7.522-103.822.49-6.796 39.402-7.565 26.929-12.91 32.007 10.233 24.924 9.346s.042 4 .234 8.834c.256 6.327.705 14.083 1.772 16.1 1.781 3.563 1.333 22.693 1.333 22.693s1.771 38.921 4.001 43.19 2.678 13.154 2.006 14.936 2.23 48.524 2.23 48.524 7.448 82.715 2.775 95.188-22.332 4.302-22.332 4.302.854-3.329-4.268-4.897-20.72-118.855-20.72-118.855-2.901-24.049-5.568-30.94-5.122-26.258-5.122-26.258-16.473-32.05-16.686-39.177c0 0-2.156-6.669-4.193.672s-8.045 24.923-8.045 24.923l-5.857 21.595-6.893 32.263-4.46 27.164s-6.678 36.051-7.745 37.61 0 34.493 0 34.493-5.164 28.049-12.462 32.946-26.632.078-26.632.078-1.14-69.556-.916-72.895Z" fill="#2f2e41"/><path fill="#2f2e41" d="m325.363 284.766 8.759 22.936-10.808 11.185 4.759 4.257-3.51 6.02-9.155 63.086 50.188 16.546 16.9-18.42 13.326 18.42 58.073-12.335-14.809-80.449v-5.259l-4.182-10.155v-21.499l19.204-63.995-41.119-10.036-15.758-10.842-5.1 15.248-21.712-3.358-.566-11.454-16.612 13.643-22.149 3.469-16.75 3.33-2.134 4.637 4.267-.928 7.469 60.332 1.419 5.621z"/><path d="m359.135 222.839 10.718-28.111 27.378-.502 9.084 28.613 32.653 182.409s-100.035 27.858-99.02-5.629c1.067-35.208 5.88-81.977 5.88-81.977Z" fill="#3f3d56"/><circle cx="382.93" cy="154.614" r="32.251" fill="#a0616a"/><path d="M348.778 131.218c5.25-5.714 11.817-16.175 31.71-20.568 24.579-5.428 36.193 16.776 29.995 17.14 18.125 5.489 6.481 42.997 1.285 39.852a1.527 1.527 0 0 1-.128-.1 25.531 25.531 0 0 1-10.198-17.42l-.986-8.876c-.141 7.222-7.523 8.177-15.063 5.517a9.46 9.46 0 0 1 6.683-6.58c-4.612 4.254-10.616 7.298-19.004 8.268 1.03-3.985 3.08-6.918 6.291-8.657l-.297-.292c-3.073 2.339-6.275 4.586-9.97 5.645-4.157 1.192-9.138.547-11.986-2.707a8.842 8.842 0 0 1-1.704-3.066c.616 5.72-3.22 12.248-6.2 11.127-2.479-.481-3.924-15.478-.428-19.283Z" fill="#2f2e41"/><path d="m422.694 152.836 29.33 49.345 21.68-10.238s-37.356-46.657-38.546-47.999a11.478 11.478 0 1 0-12.464 8.892Z" fill="#a0616a"/><path d="m436.895 275.462 45.52-32.793a26.308 26.308 0 0 0 4.453-38.633l-32.76-37.579-14.271 19.339 11 23-21.3 5.616Z" fill="#2f2e41"/><path d="m358.766 157.474-29.33 49.345-21.679-10.238s37.355-46.656 38.545-47.999a11.478 11.478 0 1 1 12.464 8.892Z" fill="#a0616a"/><path d="m344.566 280.1-45.52-32.793a26.308 26.308 0 0 1-4.453-38.632l32.76-37.58 14.271 19.34-11 23 21.3 5.616Z" fill="#2f2e41"/><path d="M390.62 270.919a6.44 6.44 0 0 1 1.52 4.36 6.864 6.864 0 0 1-1.44 4.36 9.039 9.039 0 0 1-3.98 2.82 17.771 17.771 0 0 1-11.64 0 9.036 9.036 0 0 1-3.98-2.82 6.864 6.864 0 0 1-1.44-4.36 6.567 6.567 0 0 1 1.52-4.42 7.936 7.936 0 0 1 4.28-2.46 7.974 7.974 0 0 1-3.72-2.46 5.963 5.963 0 0 1-1.36-3.9 6.485 6.485 0 0 1 1.38-4.12 8.726 8.726 0 0 1 3.76-2.7 15.866 15.866 0 0 1 10.76 0 8.729 8.729 0 0 1 3.76 2.7 6.485 6.485 0 0 1 1.38 4.12 6.125 6.125 0 0 1-1.38 3.98 7.483 7.483 0 0 1-3.66 2.42 8.2 8.2 0 0 1 4.24 2.48Zm-6.6 6.08a2.616 2.616 0 0 0 1.2-2.32 2.92 2.92 0 0 0-1.16-2.4 4.54 4.54 0 0 0-6.32 0 2.92 2.92 0 0 0-1.16 2.4 2.616 2.616 0 0 0 1.2 2.32 6.482 6.482 0 0 0 6.24 0Zm-5.66-16.34a2.65 2.65 0 0 0-.98 2.26q0 2.64 3.52 3.52 3.519-.88 3.52-3.52a2.65 2.65 0 0 0-.98-2.26 4.728 4.728 0 0 0-5.08 0Z" fill="#fff"/><path d="M30.08 176.05a8.539 8.539 0 0 0 13.025 1.338l27.114 13.622-1.847-15.66-25.465-10.534a8.585 8.585 0 0 0-12.826 11.233Z" fill="#9e616a"/><path d="m142.25 239.256-13.5-9.31s-15.46-1.05-17.785-5.964-2.717-3.262-5.195-3.85-3.758-7.986-7.913-7.113c-9.348 1.964-53.312-27.087-48.567-30.717l3.527-14.872a47.888 47.888 0 0 0 11.567 2.743c5.98.546 20.068 7.377 22.154 9.618s5.784 1.371 10.741 2.547 6.692 9.15 14.914 7.028c11.57-2.986 71.503 25.442 77.988 28.095 7.116 2.912 12.086 11.593 12.086 11.593l-1.96 8.263Z" fill="#3a3fff"/><path fill="#9e616a" d="M239.681 661.637h11.766l5.599-45.383H239.68l.001 45.383z"/><path d="m235.84 653.579 18.798-1.122v8.053l17.872 12.343a5.03 5.03 0 0 1-2.859 9.17h-22.38l-3.857-7.966-1.506 7.967h-8.438Z" fill="#2f2e41"/><path fill="#9e616a" d="m92.211 651.641 10.932 4.352 21.987-40.095-16.134-6.422-16.785 42.165z"/><path d="m91.624 642.734 17.88 5.91-2.979 7.482 12.04 18.078a5.03 5.03 0 0 1-6.048 7.463l-20.793-8.277-.637-8.828-4.346 6.844-7.84-3.12ZM215.963 526.592l-19.62-91.562-30.638 101.733-48.513 96.47-.257.512-15.368-8.274c-2.169-39.171 2.982-75.877 21.822-107.974l8.92-88.099c.274-3.01 6.928-73.68 28-86.213l6.17-14.07 61.376-15.16.223.252a46.921 46.921 0 0 1 11.243 23.567l18.34 111.1.01.063-4.917 77.506 6.726 114.346h-24.338q-22.585-42.496-19.179-114.197Z" fill="#2f2e41"/><path d="M268.798 142.584a8.539 8.539 0 0 1-.347 13.089l10.022 28.64-15.292-3.845-7.173-26.609a8.585 8.585 0 0 1 12.79-11.275Z" fill="#9e616a"/><path d="M148.389 358.924c-1.653 0-2.592-.325-2.955-1.02-.534-1.02.392-2.352 1.464-3.896.747-1.076 2.93-3.215 1.857-3.346-16.282-1.988-8.466-102.369-1.41-115.638 1.434-2.696-.083-6.832 1.531-11.407 4.41-12.495 10.43-16.335 22.422-23.984q1.46-.932 3.04-1.946c1.364-.876 1.288-3.78 1.208-6.857-.09-3.419-.182-6.954 1.493-9.164l.11-.144.175-.04c4.05-.937 17.675-2.676 25.744.012l.111.038.083.083c1.917 1.916 2.092 5.63 2.26 9.219.139 2.948.27 5.73 1.354 6.94 8.29 9.24 17.693 9.06 17.788 9.058l.466-.013.046.463c5.812 11.063 1.261 52.148 5.301 77.67 4.105 25.927 39.158 47.998 9.143 51.917a.65.65 0 0 1 .02.674c-1.813 3.388-85.021 21.38-91.251 21.38Zm90.397-21.51Z" fill="#3a3fff"/><path d="m284.075 232.492-16.66 8.263c-32.101 12.332-48.878 9.328-57.307 4.64-8.994-5.002-10.553-12.671-10.614-12.995l-.006-.156 2.055-16.278a14.705 14.705 0 0 1 18.215-12.408l38.327 9.754-.699-18.605 1.516-6.7-2.796-8.142 1.146-16.354L271 160.146l14.42 25.83-2.59 7.129 2.441 3.549-.005.164Z" fill="#3a3fff"/><path d="M200.5 245.544v5.6l-12.4 22.88h-8l12.36-22.52h-13.12v-5.96Z" fill="#fff"/><path d="m749.94 683.105-748.75.307a1.19 1.19 0 0 1 0-2.38l748.75-.308a1.19 1.19 0 0 1 0 2.381Z" fill="#cacaca"/><path d="M517.483 105.975c9.211-19.584 1.757-42.478-11.552-48.738s-35.698 2.599-44.909 22.183c-8.526 18.127-2.175 39.36 8.757 47.094a1.503 1.503 0 0 0-.506.262l-2.627 2.164a1.522 1.522 0 0 0 .35 2.565l6.625 2.944a1.522 1.522 0 0 0 2.138-1.46l-.155-3.4a1.506 1.506 0 0 0-.065-.348c12.942 3.557 33.4-5.099 41.944-23.266Z" fill="#ccc"/><path d="M509.938 77.888a25.037 25.037 0 0 1-14.301 31.376c-1.356.564-.274 2.575 1.073 2.014a27.376 27.376 0 0 0 15.456-33.89c-.46-1.383-2.69-.894-2.228.5Z" fill="#fff"/><path d="M679.09 171.596c18.637-11 25.365-34.118 17.89-46.784s-30.967-17.949-49.605-6.948c-17.251 10.182-23.955 31.305-19.275 43.852a1.503 1.503 0 0 0-.566-.069l-3.388.31a1.522 1.522 0 0 0-1.156 2.317l3.818 6.163a1.522 1.522 0 0 0 2.59-.003l1.785-2.897a1.506 1.506 0 0 0 .142-.324c8.695 10.225 30.475 14.588 47.765 4.383Z" fill="#3a3fff"/><path d="M688.666 144.135a25.037 25.037 0 0 1-29.483 17.88c-1.438-.296-1.676 1.975-.248 2.27a27.376 27.376 0 0 0 31.854-19.308c.398-1.402-1.721-2.254-2.123-.842Z" fill="#fff"/><path d="M560.456 81.645a35.915 35.915 0 0 1 1.48-32.616c.8-1.39 1.597-3.072 3.35-3.339a2.976 2.976 0 0 1 3.268 1.754 3.9 3.9 0 0 1-6.445 3.889c-3.325-2.68-2.903-7.395-2.583-11.19.729-8.65.717-17.73-2.963-25.78C553.16 6.915 546.21.685 537.815.004c-1.468-.119-1.551 2.163-.09 2.282 8.325.675 14.839 7.533 17.606 15.04a41.895 41.895 0 0 1 2.298 14.053c.027 2.455-.086 4.909-.276 7.355a40.593 40.593 0 0 0-.223 7.189c.391 3.913 2.758 8.11 6.99 8.735 3.948.583 7.804-3.546 6.736-7.47a5.358 5.358 0 0 0-8.577-2.544c-1.483 1.238-2.446 3.364-3.292 5.063a38.2 38.2 0 0 0-.546 33.011c.626 1.33 2.64.254 2.015-1.073Z" fill="#ccc"/><path d="M215.837 188.06c-.86-1.57-2.34-6.06-4-6a19.8 19.8 0 0 1-5.06-.43c-.18-.03-.36-.07-.53-.11a94.476 94.476 0 0 0-21.43-2.8c-5.83-.08-12.23.62-16.3 4.79s-3.47 12.77 2.14 14.36a72.33 72.33 0 0 1-53.64-11.89c-9.93-6.98-17.89-16.33-26.31-25.07-8.42-8.75-17.7-17.16-29.05-21.44-11.36-4.29-25.25-3.69-34.4 4.3-11.16 9.74-12.02 26.5-12.03 41.31-.01 5.54 1.72 4.37 6.61 6.98 4.54 2.42 9.31 7.4 12.08 3.07 2.77-4.33 3.26-9.68 3.83-14.79.56-5.11 1.39-10.49 4.63-14.48 5.57-6.86 16.54-6.93 24.23-2.58 7.69 4.35 12.86 11.96 17.75 19.32 4.89 7.35 10.05 14.98 17.73 19.36 10.09 5.75 22.76 4.9 33.29 9.8 6.69 3.12 12.1 8.35 17.65 13.2 5.56 4.85 11.65 9.52 18.86 11.09 7.2 1.58 15.75-.8 19.29-7.27 3.19-5.85 1.63-13.34 4.47-19.38 2.19-4.66 6.66-7.75 10.69-10.97 1.66-1.33 2.09 3.25 3.5 1.63 4.07-.81 7.89-8.55 6-12Z" fill="#3f3d56"/><circle cx="187.797" cy="148.188" r="31.598" fill="#2f2e41"/><circle cx="414.132" cy="267.99" r="22.708" transform="rotate(-1.623 -3520.999 8136.674)" fill="#9e616a"/><path d="m189.917 125.065-9.205.26a21.91 21.91 0 0 0-21.264 22.497l.006.204.167.105a29.052 29.052 0 0 0 16.906 4.81l.518-.015 5.086-.23a14.052 14.052 0 0 0 .832-6.93 46.742 46.742 0 0 1 1.793 6.808l22.822-1.039a5.097 5.097 0 0 0 4.843-5.214 21.91 21.91 0 0 0-22.504-21.256Z" fill="#2f2e41"/><path d="M171.574 119.367c-2.078 2.562-5.414 3.63-8.412 5.017a35.969 35.969 0 0 0-20.143 26.859c-.707 4.705-.46 9.547-1.656 14.148-1.188 4.601-4.322 9.17-8.981 10.095-3.152.631-6.363-.502-9.376-1.625q-2.487-.919-4.973-1.845 2.382-6.506 4.756-13.012a65.232 65.232 0 0 1-9.18 11.38q-8.91-3.302-17.836-6.604c14.476-.356 11.607-14.336 14.446-28.526 1.56-7.797 16.569-13.472 19.331-20.927a22.557 22.557 0 0 1 40.84-3.213c3.006 1.1 3.223 5.723 1.184 8.253Z" fill="#2f2e41"/><circle cx="173.021" cy="116.998" r="11.766" fill="#2f2e41"/></svg>