<svg width="692" height="500" viewBox="0 0 692 500" fill="none" xmlns="http://www.w3.org/2000/svg">
<g clip-path="url(#clip0_6842_41)">
<path d="M691 496.043H1C0.734784 496.043 0.48043 495.938 0.292893 495.75C0.105357 495.563 0 495.308 0 495.043C0 494.778 0.105357 494.523 0.292893 494.336C0.48043 494.148 0.734784 494.043 1 494.043H691C691.265 494.043 691.52 494.148 691.707 494.336C691.895 494.523 692 494.778 692 495.043C692 495.308 691.895 495.563 691.707 495.75C691.52 495.938 691.265 496.043 691 496.043Z" fill="#CCCCCC"/>
<path d="M622.704 321.641H216.704C214.98 321.641 213.327 322.326 212.108 323.545C210.889 324.764 210.204 326.417 210.204 328.141C210.204 329.865 210.889 331.518 212.108 332.737C213.327 333.956 214.98 334.641 216.704 334.641H228.204V490.141C228.204 491.865 228.889 493.518 230.108 494.737C231.327 495.956 232.98 496.641 234.704 496.641C236.428 496.641 238.081 495.956 239.3 494.737C240.519 493.518 241.204 491.865 241.204 490.141L241.304 334.641H597.204V490.141C597.204 491.865 597.889 493.518 599.108 494.737C600.327 495.956 601.98 496.641 603.704 496.641C605.428 496.641 607.081 495.956 608.3 494.737C609.519 493.518 610.204 491.865 610.204 490.141V338.07L612.095 334.642H622.705C624.429 334.642 626.082 333.957 627.301 332.738C628.52 331.519 629.205 329.866 629.205 328.142C629.205 326.418 628.52 324.765 627.301 323.546C626.082 322.327 624.429 321.642 622.705 321.642L622.704 321.641Z" fill="#CCCCCC"/>
<path d="M441.794 325.043H318.812C316.431 325.04 314.148 324.093 312.464 322.409C310.78 320.725 309.833 318.442 309.83 316.061V248.352C309.833 245.971 310.78 243.688 312.464 242.004C314.148 240.32 316.431 239.373 318.812 239.37H441.794C444.175 239.373 446.459 240.32 448.142 242.004C449.826 243.688 450.773 245.971 450.776 248.352V316.062C450.773 318.443 449.826 320.726 448.142 322.41C446.458 324.093 444.175 325.04 441.794 325.043Z" fill="#3F3D56"/>
<path d="M441.793 246.283H318.813C318.264 246.284 317.739 246.503 317.351 246.89C316.963 247.278 316.744 247.804 316.743 248.353V316.063C316.744 316.612 316.963 317.138 317.351 317.526C317.739 317.914 318.264 318.132 318.813 318.133H441.793C442.342 318.132 442.868 317.914 443.256 317.526C443.644 317.138 443.862 316.612 443.863 316.063V248.353C443.862 247.804 443.644 247.278 443.256 246.89C442.868 246.503 442.342 246.284 441.793 246.283Z" fill="white"/>
<path d="M390.792 294.221C390.792 294.221 376.07 290.829 367.972 297.048C359.874 303.267 378.278 317.403 378.278 317.403L390.792 294.221Z" fill="#2F2E41"/>
<path d="M381.024 287.811C388.693 287.811 394.911 281.594 394.911 273.924C394.911 266.254 388.693 260.037 381.024 260.037C373.354 260.037 367.137 266.254 367.137 273.924C367.137 281.594 373.354 287.811 381.024 287.811Z" fill="#A0616A"/>
<path d="M370.286 254.43C371.212 252.858 372.554 251.573 374.164 250.716C375.775 249.859 377.591 249.464 379.412 249.574C381.317 249.813 383.176 250.333 384.928 251.118L394.006 254.66C396.355 255.576 398.928 256.698 399.947 259.005C400.893 261.145 400.187 263.617 399.473 265.845L396.076 276.439C395.7 274.041 395.054 271.694 394.152 269.441C393.234 267.173 391.575 265.283 389.447 264.078C387.089 262.868 384.31 262.893 381.663 263.02C377.913 263.2 373.837 263.678 371.173 266.322C369.759 267.824 368.8 269.697 368.409 271.722C368.023 273.736 367.829 275.782 367.829 277.833C366.291 275.19 364.996 272.414 363.959 269.538C363.106 267.396 362.62 265.126 362.522 262.823C362.432 260.5 363.203 258.226 364.686 256.436C365.438 255.561 366.421 254.914 367.522 254.567C368.623 254.221 369.798 254.189 370.917 254.475L370.286 254.43Z" fill="#2F2E41"/>
<path d="M414.183 306.263C414.052 305.794 413.786 305.374 413.418 305.055C413.05 304.737 412.596 304.534 412.113 304.473C412.081 304.451 412.047 304.431 412.013 304.413L391.282 292.795C390.69 292.463 389.992 292.372 389.335 292.541C388.678 292.711 388.111 293.127 387.753 293.703L382.083 302.883L373.543 294.343L373.408 294.207C372.969 293.769 372.39 293.499 371.773 293.445C371.155 293.391 370.538 293.556 370.031 293.912L352.993 305.843C352.963 305.843 352.933 305.853 352.903 305.853C352.087 305.989 351.343 306.399 350.792 307.015C350.241 307.632 349.917 308.418 349.873 309.243L349.433 318.133H417.473L414.183 306.263Z" fill="#39DCF9"/>
<path d="M452.158 316.752H439.03C439.03 316.386 438.885 316.034 438.626 315.775C438.367 315.516 438.016 315.37 437.649 315.37H433.503C433.137 315.37 432.785 315.516 432.526 315.775C432.267 316.034 432.121 316.385 432.121 316.752H427.976C427.976 316.385 427.831 316.034 427.571 315.775C427.312 315.516 426.961 315.37 426.594 315.37H422.449C422.083 315.37 421.731 315.516 421.472 315.775C421.213 316.034 421.067 316.385 421.067 316.752H416.921C416.921 316.386 416.776 316.034 416.517 315.775C416.258 315.516 415.907 315.37 415.54 315.37H411.394C411.028 315.37 410.676 315.516 410.417 315.775C410.158 316.034 410.012 316.385 410.012 316.752H405.867C405.867 316.385 405.722 316.034 405.462 315.775C405.203 315.516 404.852 315.37 404.485 315.37H400.34C399.974 315.37 399.622 315.516 399.363 315.775C399.104 316.034 398.958 316.385 398.958 316.752H394.812C394.812 316.385 394.667 316.034 394.407 315.775C394.148 315.516 393.797 315.37 393.43 315.37H389.285C388.919 315.37 388.567 315.516 388.308 315.775C388.049 316.034 387.903 316.385 387.903 316.752H383.758C383.758 316.385 383.613 316.034 383.353 315.775C383.094 315.516 382.743 315.37 382.376 315.37H378.23C377.864 315.37 377.513 315.516 377.254 315.775C376.995 316.034 376.849 316.386 376.849 316.752H372.703C372.703 316.571 372.667 316.391 372.598 316.223C372.529 316.055 372.427 315.903 372.298 315.775C372.17 315.646 372.018 315.545 371.85 315.475C371.682 315.406 371.503 315.37 371.321 315.37H367.176C366.81 315.37 366.458 315.516 366.199 315.775C365.94 316.034 365.794 316.385 365.794 316.752H361.649C361.649 316.385 361.504 316.034 361.244 315.775C360.985 315.516 360.634 315.37 360.267 315.37H356.121C355.755 315.37 355.404 315.516 355.145 315.775C354.886 316.034 354.74 316.386 354.74 316.752H350.594C350.594 316.385 350.449 316.034 350.189 315.775C349.93 315.516 349.579 315.37 349.212 315.37H345.067C344.701 315.37 344.349 315.516 344.09 315.775C343.831 316.034 343.685 316.385 343.685 316.752H339.54C339.54 316.571 339.504 316.391 339.435 316.223C339.366 316.055 339.264 315.903 339.135 315.775C339.007 315.646 338.855 315.545 338.687 315.475C338.519 315.406 338.34 315.37 338.158 315.37H334.012C333.646 315.37 333.294 315.516 333.035 315.775C332.776 316.034 332.63 316.385 332.63 316.752H328.485C328.485 316.385 328.34 316.034 328.08 315.775C327.821 315.516 327.47 315.37 327.103 315.37H322.958C322.592 315.37 322.24 315.516 321.981 315.775C321.722 316.034 321.576 316.385 321.576 316.752H308.449C307.35 316.752 306.295 317.189 305.518 317.966C304.74 318.744 304.304 319.798 304.304 320.897C304.304 321.997 304.74 323.051 305.518 323.829C306.295 324.606 307.35 325.043 308.449 325.043H452.158C453.258 325.043 454.312 324.606 455.089 323.829C455.867 323.052 456.303 321.997 456.303 320.898C456.303 319.799 455.867 318.744 455.089 317.967C454.312 317.19 453.258 316.752 452.158 316.752Z" fill="#3F3D56"/>
<path d="M287.08 292.678V320.204H218.117C216.27 320.267 214.429 319.958 212.704 319.294C210.98 318.631 209.406 317.627 208.077 316.343C206.748 315.059 205.692 313.52 204.97 311.819C204.248 310.118 203.876 308.289 203.876 306.441C203.876 304.593 204.248 302.764 204.97 301.063C205.692 299.362 206.748 297.823 208.077 296.539C209.406 295.255 210.98 294.251 212.704 293.588C214.429 292.924 216.27 292.615 218.117 292.678H287.08Z" fill="#F2F2F2"/>
<path d="M288.773 319.992C288.773 320.273 288.661 320.542 288.463 320.741C288.264 320.939 287.995 321.051 287.714 321.051H216.89C213.044 321.051 209.354 319.523 206.634 316.803C203.914 314.083 202.386 310.394 202.386 306.547C202.386 302.7 203.914 299.011 206.634 296.291C209.354 293.571 213.044 292.043 216.89 292.043H287.715C287.99 292.051 288.251 292.167 288.443 292.364C288.635 292.562 288.742 292.826 288.742 293.101C288.742 293.377 288.635 293.641 288.443 293.839C288.251 294.036 287.99 294.152 287.715 294.16H216.89C213.605 294.16 210.454 295.465 208.131 297.788C205.808 300.111 204.503 303.262 204.503 306.547C204.503 309.832 205.808 312.983 208.131 315.306C210.454 317.629 213.605 318.934 216.89 318.934H287.715C287.996 318.934 288.265 319.046 288.463 319.244C288.662 319.442 288.773 319.711 288.773 319.992Z" fill="#39DCF9"/>
<path d="M287.08 299.03H212.97C212.941 299.032 212.912 299.028 212.885 299.018C212.857 299.009 212.832 298.993 212.811 298.973C212.79 298.954 212.773 298.93 212.761 298.903C212.75 298.876 212.744 298.848 212.744 298.819C212.744 298.789 212.75 298.761 212.761 298.734C212.773 298.707 212.79 298.683 212.811 298.664C212.832 298.644 212.857 298.628 212.885 298.619C212.912 298.609 212.941 298.605 212.97 298.607H287.078C287.132 298.611 287.182 298.635 287.219 298.674C287.255 298.713 287.276 298.765 287.276 298.819C287.276 298.872 287.255 298.924 287.219 298.963C287.182 299.002 287.132 299.026 287.078 299.03H287.08ZM287.08 304.112H212.97C212.941 304.114 212.912 304.11 212.885 304.1C212.857 304.091 212.832 304.075 212.811 304.055C212.79 304.036 212.773 304.012 212.761 303.985C212.75 303.958 212.744 303.93 212.744 303.901C212.744 303.871 212.75 303.843 212.761 303.816C212.773 303.789 212.79 303.765 212.811 303.746C212.832 303.726 212.857 303.71 212.885 303.701C212.912 303.691 212.941 303.687 212.97 303.689H287.078C287.132 303.693 287.182 303.717 287.219 303.756C287.255 303.795 287.276 303.847 287.276 303.901C287.276 303.954 287.255 304.006 287.219 304.045C287.182 304.084 287.132 304.108 287.078 304.112H287.08ZM287.08 309.194H212.97C212.914 309.194 212.86 309.172 212.82 309.132C212.781 309.092 212.758 309.038 212.758 308.982C212.758 308.926 212.781 308.872 212.82 308.832C212.86 308.792 212.914 308.77 212.97 308.77H287.078C287.134 308.77 287.188 308.792 287.228 308.832C287.268 308.872 287.29 308.926 287.29 308.982C287.29 309.038 287.268 309.092 287.228 309.132C287.188 309.172 287.134 309.194 287.078 309.194H287.08ZM287.08 314.275H212.97C212.941 314.277 212.912 314.273 212.885 314.263C212.857 314.254 212.832 314.238 212.811 314.218C212.79 314.199 212.773 314.175 212.761 314.148C212.75 314.121 212.744 314.093 212.744 314.064C212.744 314.034 212.75 314.006 212.761 313.979C212.773 313.952 212.79 313.928 212.811 313.909C212.832 313.889 212.857 313.873 212.885 313.864C212.912 313.854 212.941 313.85 212.97 313.852H287.078C287.132 313.856 287.182 313.88 287.219 313.919C287.255 313.958 287.276 314.01 287.276 314.064C287.276 314.117 287.255 314.169 287.219 314.208C287.182 314.247 287.132 314.271 287.078 314.275H287.08Z" fill="#CCCCCC"/>
<path d="M274.08 263.678V291.204H205.117C203.27 291.267 201.429 290.958 199.704 290.294C197.98 289.631 196.406 288.627 195.077 287.343C193.748 286.059 192.692 284.52 191.97 282.819C191.248 281.118 190.876 279.289 190.876 277.441C190.876 275.593 191.248 273.764 191.97 272.063C192.692 270.362 193.748 268.823 195.077 267.539C196.406 266.255 197.98 265.251 199.704 264.588C201.429 263.924 203.27 263.615 205.117 263.678H274.08Z" fill="#F2F2F2"/>
<path d="M275.773 290.992C275.773 291.273 275.661 291.542 275.463 291.741C275.264 291.939 274.995 292.051 274.714 292.051H203.89C200.044 292.051 196.354 290.523 193.634 287.803C190.914 285.083 189.386 281.394 189.386 277.547C189.386 273.7 190.914 270.011 193.634 267.291C196.354 264.571 200.044 263.043 203.89 263.043H274.715C274.99 263.051 275.251 263.167 275.443 263.364C275.635 263.562 275.742 263.826 275.742 264.101C275.742 264.377 275.635 264.641 275.443 264.839C275.251 265.036 274.99 265.152 274.715 265.16H203.89C200.605 265.16 197.454 266.465 195.131 268.788C192.808 271.111 191.503 274.262 191.503 277.547C191.503 280.832 192.808 283.983 195.131 286.306C197.454 288.629 200.605 289.934 203.89 289.934H274.715C274.996 289.934 275.265 290.046 275.463 290.244C275.662 290.442 275.773 290.711 275.773 290.992Z" fill="#3F3D56"/>
<path d="M274.08 270.03H199.97C199.941 270.032 199.912 270.028 199.885 270.018C199.857 270.009 199.832 269.993 199.811 269.973C199.79 269.954 199.773 269.93 199.761 269.903C199.75 269.876 199.744 269.848 199.744 269.819C199.744 269.789 199.75 269.761 199.761 269.734C199.773 269.707 199.79 269.683 199.811 269.664C199.832 269.644 199.857 269.628 199.885 269.619C199.912 269.609 199.941 269.605 199.97 269.607H274.078C274.132 269.611 274.182 269.635 274.219 269.674C274.255 269.713 274.276 269.765 274.276 269.819C274.276 269.872 274.255 269.924 274.219 269.963C274.182 270.002 274.132 270.026 274.078 270.03H274.08ZM274.08 275.112H199.97C199.941 275.114 199.912 275.11 199.885 275.1C199.857 275.091 199.832 275.075 199.811 275.055C199.79 275.036 199.773 275.012 199.761 274.985C199.75 274.958 199.744 274.93 199.744 274.901C199.744 274.871 199.75 274.843 199.761 274.816C199.773 274.789 199.79 274.765 199.811 274.746C199.832 274.726 199.857 274.71 199.885 274.701C199.912 274.691 199.941 274.687 199.97 274.689H274.078C274.132 274.693 274.182 274.717 274.219 274.756C274.255 274.795 274.276 274.847 274.276 274.901C274.276 274.954 274.255 275.006 274.219 275.045C274.182 275.084 274.132 275.108 274.078 275.112H274.08ZM274.08 280.194H199.97C199.914 280.194 199.86 280.172 199.82 280.132C199.781 280.092 199.758 280.038 199.758 279.982C199.758 279.926 199.781 279.872 199.82 279.832C199.86 279.792 199.914 279.77 199.97 279.77H274.078C274.134 279.77 274.188 279.792 274.228 279.832C274.268 279.872 274.29 279.926 274.29 279.982C274.29 280.038 274.268 280.092 274.228 280.132C274.188 280.172 274.134 280.194 274.078 280.194H274.08ZM274.08 285.275H199.97C199.941 285.277 199.912 285.273 199.885 285.263C199.857 285.254 199.832 285.238 199.811 285.218C199.79 285.199 199.773 285.175 199.761 285.148C199.75 285.121 199.744 285.093 199.744 285.064C199.744 285.034 199.75 285.006 199.761 284.979C199.773 284.952 199.79 284.928 199.811 284.909C199.832 284.889 199.857 284.873 199.885 284.864C199.912 284.854 199.941 284.85 199.97 284.852H274.078C274.132 284.856 274.182 284.88 274.219 284.919C274.255 284.958 274.276 285.01 274.276 285.064C274.276 285.117 274.255 285.169 274.219 285.208C274.182 285.247 274.132 285.271 274.078 285.275H274.08ZM354.303 418.043V394.043C354.303 392.982 353.882 391.965 353.132 391.215C352.381 390.464 351.364 390.043 350.303 390.043H259.303C258.242 390.043 257.225 390.464 256.475 391.215C255.725 391.965 255.303 392.982 255.303 394.043V418.043H354.303ZM255.303 427.043H354.303V458.043H255.303V427.043ZM255.303 467.043V491.043C255.303 492.104 255.725 493.121 256.475 493.871C257.225 494.622 258.242 495.043 259.303 495.043H350.303C351.364 495.043 352.381 494.622 353.132 493.871C353.882 493.121 354.303 492.104 354.303 491.043V467.043H255.303Z" fill="#CCCCCC"/>
<path d="M304.303 408.043C305.96 408.043 307.303 406.7 307.303 405.043C307.303 403.386 305.96 402.043 304.303 402.043C302.646 402.043 301.303 403.386 301.303 405.043C301.303 406.7 302.646 408.043 304.303 408.043Z" fill="white"/>
<path d="M304.303 448.043C305.96 448.043 307.303 446.7 307.303 445.043C307.303 443.386 305.96 442.043 304.303 442.043C302.646 442.043 301.303 443.386 301.303 445.043C301.303 446.7 302.646 448.043 304.303 448.043Z" fill="white"/>
<path d="M304.464 487.196C306.121 487.196 307.464 485.853 307.464 484.196C307.464 482.539 306.121 481.196 304.464 481.196C302.807 481.196 301.464 482.539 301.464 484.196C301.464 485.853 302.807 487.196 304.464 487.196Z" fill="white"/>
<path d="M343.08 362.678V390.204H274.117C272.27 390.267 270.43 389.958 268.705 389.294C266.98 388.631 265.407 387.627 264.078 386.343C262.749 385.059 261.692 383.52 260.971 381.819C260.249 380.118 259.877 378.289 259.877 376.441C259.877 374.593 260.249 372.764 260.971 371.063C261.692 369.362 262.749 367.823 264.078 366.539C265.407 365.255 266.98 364.251 268.705 363.588C270.43 362.924 272.27 362.615 274.117 362.678H343.08Z" fill="#F2F2F2"/>
<path d="M344.773 389.992C344.772 390.273 344.661 390.542 344.462 390.741C344.264 390.939 343.995 391.051 343.714 391.051H272.89C269.043 391.051 265.354 389.523 262.634 386.803C259.914 384.083 258.386 380.394 258.386 376.547C258.386 372.7 259.914 369.011 262.634 366.291C265.354 363.571 269.043 362.043 272.89 362.043H343.715C343.99 362.051 344.251 362.167 344.442 362.364C344.634 362.562 344.741 362.826 344.741 363.101C344.741 363.377 344.634 363.641 344.442 363.839C344.251 364.036 343.99 364.152 343.715 364.16H272.89C269.605 364.16 266.454 365.465 264.131 367.788C261.808 370.111 260.503 373.262 260.503 376.547C260.503 379.832 261.808 382.983 264.131 385.306C266.454 387.629 269.605 388.934 272.89 388.934H343.715C343.995 388.934 344.264 389.046 344.463 389.244C344.661 389.442 344.772 389.711 344.773 389.992Z" fill="#3F3D56"/>
<path d="M343.08 369.03H268.97C268.941 369.032 268.912 369.028 268.884 369.018C268.857 369.009 268.832 368.993 268.811 368.973C268.789 368.954 268.772 368.93 268.761 368.903C268.749 368.876 268.743 368.848 268.743 368.819C268.743 368.789 268.749 368.761 268.761 368.734C268.772 368.707 268.789 368.683 268.811 368.664C268.832 368.644 268.857 368.628 268.884 368.619C268.912 368.609 268.941 368.605 268.97 368.607H343.078C343.131 368.611 343.181 368.635 343.218 368.674C343.255 368.713 343.275 368.765 343.275 368.819C343.275 368.872 343.255 368.924 343.218 368.963C343.181 369.002 343.131 369.026 343.078 369.03H343.08ZM343.08 374.112H268.97C268.941 374.114 268.912 374.11 268.884 374.1C268.857 374.091 268.832 374.075 268.811 374.055C268.789 374.036 268.772 374.012 268.761 373.985C268.749 373.958 268.743 373.93 268.743 373.901C268.743 373.871 268.749 373.843 268.761 373.816C268.772 373.789 268.789 373.765 268.811 373.746C268.832 373.726 268.857 373.71 268.884 373.701C268.912 373.691 268.941 373.687 268.97 373.689H343.078C343.131 373.693 343.181 373.717 343.218 373.756C343.255 373.795 343.275 373.847 343.275 373.901C343.275 373.954 343.255 374.006 343.218 374.045C343.181 374.084 343.131 374.108 343.078 374.112H343.08ZM343.08 379.194H268.97C268.914 379.194 268.86 379.172 268.82 379.132C268.78 379.092 268.758 379.038 268.758 378.982C268.758 378.926 268.78 378.872 268.82 378.832C268.86 378.792 268.914 378.77 268.97 378.77H343.078C343.134 378.77 343.188 378.792 343.228 378.832C343.267 378.872 343.29 378.926 343.29 378.982C343.29 379.038 343.267 379.092 343.228 379.132C343.188 379.172 343.134 379.194 343.078 379.194H343.08ZM343.08 384.275H268.97C268.941 384.277 268.912 384.273 268.884 384.263C268.857 384.254 268.832 384.238 268.811 384.218C268.789 384.199 268.772 384.175 268.761 384.148C268.749 384.121 268.743 384.093 268.743 384.064C268.743 384.034 268.749 384.006 268.761 383.979C268.772 383.952 268.789 383.928 268.811 383.909C268.832 383.889 268.857 383.873 268.884 383.864C268.912 383.854 268.941 383.85 268.97 383.852H343.078C343.131 383.856 343.181 383.88 343.218 383.919C343.255 383.958 343.275 384.01 343.275 384.064C343.275 384.117 343.255 384.169 343.218 384.208C343.181 384.247 343.131 384.271 343.078 384.275H343.08Z" fill="#CCCCCC"/>
<path d="M250.11 183.021V7.521C250.113 5.52687 250.906 3.6151 252.316 2.20513C253.726 0.795154 255.638 0.00211718 257.632 0L396.36 0C398.354 0.00211718 400.266 0.795154 401.677 2.20513C403.087 3.6151 403.88 5.52687 403.882 7.521V183.021C403.88 185.015 403.087 186.927 401.677 188.338C400.267 189.748 398.355 190.541 396.36 190.543H257.632C255.638 190.541 253.726 189.748 252.316 188.338C250.906 186.927 250.112 185.015 250.11 183.021ZM257.632 1.671C256.081 1.67285 254.595 2.28978 253.498 3.38647C252.401 4.48316 251.784 5.97005 251.782 7.521V183.021C251.784 184.572 252.401 186.059 253.498 187.156C254.595 188.252 256.081 188.869 257.632 188.871H396.36C397.911 188.869 399.398 188.252 400.495 187.156C401.592 186.059 402.208 184.572 402.21 183.021V7.521C402.208 5.97005 401.592 4.48316 400.495 3.38647C399.398 2.28978 397.911 1.67285 396.36 1.671H257.632Z" fill="#E6E6E6"/>
<path d="M334.775 80.598V44.562C334.777 43.565 335.173 42.6093 335.878 41.9044C336.584 41.1995 337.539 40.8031 338.536 40.802H369.073C370.07 40.8033 371.026 41.1999 371.731 41.9047C372.436 42.6096 372.832 43.5652 372.833 44.562V80.598C372.832 81.5948 372.436 82.5504 371.731 83.2553C371.026 83.9601 370.07 84.3567 369.073 84.358H338.536C337.54 84.3567 336.584 83.9601 335.879 83.2553C335.174 82.5504 334.778 81.5948 334.776 80.598H334.775Z" fill="#39DCF9"/>
<path d="M275.44 97.312V61.276C275.442 60.2792 275.838 59.3236 276.543 58.6187C277.248 57.9139 278.204 57.5173 279.2 57.516H309.737C310.734 57.517 311.69 57.9135 312.395 58.6184C313.1 59.3233 313.497 60.279 313.498 61.276V97.312C313.497 98.3088 313.101 99.2644 312.396 99.9693C311.691 100.674 310.735 101.071 309.738 101.072H279.2C278.204 101.071 277.248 100.674 276.543 99.9693C275.838 99.2644 275.442 98.3088 275.44 97.312Z" fill="#CCCCCC"/>
<path d="M323.075 148.29V112.255C323.077 111.258 323.473 110.302 324.178 109.597C324.883 108.893 325.839 108.496 326.836 108.495H357.373C358.37 108.496 359.326 108.893 360.03 109.598C360.735 110.303 361.132 111.258 361.133 112.255V148.291C361.132 149.288 360.735 150.243 360.03 150.948C359.326 151.653 358.37 152.05 357.373 152.051H326.836C325.839 152.05 324.884 151.653 324.179 150.948C323.474 150.243 323.077 149.288 323.076 148.291L323.075 148.29Z" fill="#FF6584"/>
<path d="M505.563 313.043H474.143C473.845 313.043 473.55 313.111 473.283 313.243L465.353 317.213C465.092 317.324 464.869 317.509 464.713 317.746C464.556 317.982 464.473 318.259 464.473 318.543C464.473 318.827 464.556 319.104 464.713 319.34C464.869 319.577 465.092 319.762 465.353 319.873L473.283 323.843C473.55 323.975 473.845 324.043 474.143 324.043H505.563C505.996 324.068 506.421 323.921 506.746 323.635C507.072 323.348 507.272 322.945 507.303 322.513V314.573C507.272 314.14 507.072 313.737 506.746 313.451C506.421 313.165 505.996 313.018 505.563 313.043Z" fill="#3F3D56"/>
<path d="M507.303 314.573V322.513C507.272 322.945 507.072 323.348 506.746 323.635C506.421 323.921 505.996 324.068 505.563 324.043H499.303V313.043H505.563C505.996 313.018 506.421 313.165 506.746 313.451C507.072 313.737 507.272 314.14 507.303 314.573Z" fill="#39DCF9"/>
<path d="M505.327 253.643C506.75 253.029 508.287 252.723 509.837 252.744C511.387 252.765 512.915 253.113 514.32 253.766C515.726 254.419 516.978 255.361 517.994 256.532C519.011 257.702 519.768 259.074 520.217 260.557C520.357 261.027 520.464 261.507 520.537 261.992L564.475 283.781L574.643 277.042L587.295 291.607L571.769 304.217C569.902 305.721 567.6 306.584 565.204 306.676C562.808 306.768 560.447 306.086 558.469 304.73L513.889 273.902C513.557 274.043 513.219 274.166 512.874 274.272C511.391 274.721 509.829 274.851 508.291 274.654C506.754 274.457 505.275 273.937 503.952 273.129C502.63 272.321 501.493 271.243 500.616 269.964C499.739 268.686 499.142 267.237 498.864 265.712C498.782 265.269 498.727 264.822 498.701 264.372C498.577 262.121 499.146 259.886 500.33 257.968C501.515 256.049 503.258 254.54 505.326 253.642L505.327 253.643Z" fill="#FFB8B8"/>
<path d="M596.841 387.792H548.831C548.831 389.172 499.351 390.292 499.351 390.292C498.574 390.877 497.866 391.548 497.241 392.292C495.362 394.534 494.334 397.367 494.341 400.292V402.292C494.342 405.607 495.66 408.785 498.003 411.129C500.347 413.473 503.526 414.791 506.841 414.792H596.841C600.155 414.789 603.333 413.472 605.677 411.128C608.02 408.784 609.338 405.606 609.341 402.292V400.292C609.336 396.978 608.018 393.801 605.675 391.458C603.331 389.115 600.155 387.796 596.841 387.792Z" fill="#3F3D56"/>
<path d="M557.618 498.295H544.618V414.295H557.618V498.295Z" fill="#3F3D56"/>
<path d="M507.617 497.838C507.617 499.243 527.317 498.382 551.617 498.382C575.917 498.382 595.617 499.243 595.617 497.838C595.617 496.433 575.918 485.295 551.617 485.295C527.316 485.295 507.617 496.434 507.617 497.838Z" fill="#3F3D56"/>
<path d="M519.353 487.993L507.094 487.992L501.261 456.195L519.355 456.196L519.353 487.993Z" fill="#FFB8B8"/>
<path d="M522.48 499.877L482.95 499.875V499.375C482.95 495.294 484.571 491.381 487.457 488.495C490.342 485.61 494.256 483.989 498.336 483.989L522.481 483.99L522.48 499.877ZM501.017 468.275L476.576 413.467C474.536 408.848 474.31 403.629 475.944 398.851C477.578 394.073 480.952 390.085 485.394 387.683L538.408 359.255L562.598 357.198L584.914 355.17L585.074 355.442C585.28 355.79 590.078 364.077 586.835 373.164C584.375 380.056 577.976 385.44 567.816 389.166C544.102 397.861 516.707 405.293 506.03 408.084C505.558 408.205 505.117 408.424 504.736 408.727C504.355 409.031 504.043 409.411 503.819 409.844C503.595 410.272 503.462 410.741 503.428 411.222C503.394 411.704 503.46 412.187 503.622 412.642L526.329 463.657C526.566 464.304 526.652 464.997 526.579 465.682C526.506 466.368 526.277 467.027 525.908 467.61C525.54 468.193 525.043 468.683 524.456 469.043C523.868 469.403 523.205 469.623 522.519 469.687L505.553 470.921C505.409 470.935 505.266 470.942 505.123 470.942C504.254 470.942 503.404 470.69 502.675 470.216C501.947 469.743 501.371 469.069 501.017 468.275Z" fill="#2F2E41"/>
<path d="M525.353 487.993L513.094 487.992L507.261 456.195L525.355 456.196L525.353 487.993Z" fill="#FFB8B8"/>
<path d="M528.48 499.877L488.95 499.875V499.375C488.95 495.294 490.571 491.381 493.457 488.495C496.342 485.61 500.256 483.989 504.336 483.989L528.481 483.99L528.48 499.877ZM508.017 471.275L483.576 416.467C481.536 411.848 481.31 406.629 482.944 401.851C484.578 397.073 487.952 393.085 492.394 390.683L545.408 362.255L569.598 360.198L591.914 358.17L592.074 358.442C592.28 358.79 597.078 367.077 593.835 376.164C591.375 383.056 584.976 388.44 574.816 392.166C551.102 400.861 523.707 408.293 513.03 411.084C512.558 411.205 512.117 411.424 511.736 411.727C511.355 412.031 511.043 412.411 510.819 412.844C510.595 413.272 510.462 413.741 510.428 414.222C510.394 414.704 510.46 415.187 510.622 415.642L533.329 466.657C533.566 467.304 533.652 467.997 533.579 468.682C533.506 469.368 533.277 470.027 532.908 470.61C532.54 471.193 532.043 471.683 531.456 472.043C530.868 472.403 530.205 472.623 529.519 472.687L512.553 473.921C512.409 473.935 512.266 473.942 512.123 473.942C511.254 473.942 510.404 473.69 509.675 473.216C508.947 472.743 508.371 472.069 508.017 471.275Z" fill="#2F2E41"/>
<path d="M495.835 303.844C485.565 290.183 477.446 275.031 471.759 258.913C471.43 257.949 471.453 256.899 471.826 255.95C472.198 255.002 472.894 254.216 473.791 253.733L508.936 234.902C509.505 234.595 510.136 234.422 510.782 234.395C511.428 234.369 512.071 234.49 512.662 234.75C513.265 235.012 513.8 235.408 514.226 235.908C514.653 236.407 514.96 236.998 515.123 237.634C519.214 253.166 526.903 267.516 537.569 279.525C538.009 280.014 538.33 280.596 538.51 281.228C538.69 281.86 538.723 282.525 538.607 283.172C538.496 283.809 538.241 284.411 537.861 284.934C537.482 285.457 536.988 285.887 536.417 286.19L501.272 305.021C500.373 305.5 499.334 305.645 498.338 305.429C497.343 305.214 496.456 304.652 495.835 303.844Z" fill="#CCCCCC"/>
<path d="M498.233 302.042C498.422 302.278 498.687 302.44 498.984 302.502C499.28 302.563 499.588 302.519 499.855 302.377L535 283.545C535.171 283.456 535.318 283.329 535.432 283.173C535.545 283.018 535.621 282.838 535.653 282.648C535.69 282.448 535.679 282.242 535.623 282.046C535.566 281.85 535.465 281.67 535.328 281.52C524.348 269.158 516.432 254.384 512.221 238.395C512.172 238.197 512.078 238.014 511.947 237.859C511.815 237.703 511.65 237.581 511.463 237.5C511.287 237.421 511.095 237.385 510.902 237.393C510.71 237.401 510.522 237.453 510.353 237.546L475.208 256.378C474.942 256.522 474.734 256.754 474.621 257.035C474.507 257.315 474.496 257.627 474.588 257.915C480.172 273.744 488.146 288.625 498.233 302.042Z" fill="white"/>
<path d="M612.593 298.82L585.068 309.28L578.348 290.614C577.455 288.135 577.468 285.421 578.383 282.95C579.299 280.48 581.058 278.413 583.35 277.114C585.668 275.8 588.38 275.359 590.996 275.87C593.611 276.38 595.958 277.81 597.612 279.899L612.593 298.82Z" fill="#39DCF9"/>
<path d="M542.583 372.78C542.004 372.37 541.518 371.842 541.159 371.23C540.8 370.619 540.575 369.937 540.499 369.232C536.974 336.322 539.429 310.568 548.005 290.497C549.516 287.035 551.791 283.961 554.66 281.505C557.53 279.049 560.919 277.275 564.572 276.317L586.822 275.194L586.937 275.25C591.958 277.709 596.053 281.721 598.614 286.691C601.175 291.66 602.067 297.323 601.156 302.839C594 321.702 588.008 341.341 592.577 357.185C592.769 357.847 592.825 358.541 592.741 359.226C592.658 359.91 592.438 360.571 592.093 361.168C591.759 361.745 591.31 362.248 590.775 362.645C590.239 363.043 589.628 363.326 588.978 363.478L546.599 373.558C545.913 373.721 545.2 373.736 544.507 373.602C543.815 373.468 543.159 373.188 542.583 372.781V372.78Z" fill="#39DCF9"/>
<path d="M579.396 266.884C592.961 266.884 603.957 255.888 603.957 242.323C603.957 228.758 592.961 217.762 579.396 217.762C565.831 217.762 554.835 228.758 554.835 242.323C554.835 255.888 565.831 266.884 579.396 266.884Z" fill="#FFB8B8"/>
<path d="M511.243 261.776L492.102 270.226C491.374 270.546 490.548 270.565 489.806 270.278C489.065 269.99 488.467 269.42 488.146 268.693L487.672 267.62C487.351 266.892 487.332 266.067 487.62 265.325C487.907 264.583 488.477 263.986 489.205 263.664L508.347 255.214C509.075 254.894 509.9 254.875 510.642 255.163C511.384 255.45 511.981 256.02 512.303 256.748L512.776 257.82C513.096 258.548 513.115 259.373 512.827 260.115C512.54 260.857 511.97 261.454 511.243 261.776ZM518.243 274.776L499.102 283.226C498.374 283.546 497.548 283.565 496.806 283.278C496.065 282.99 495.467 282.42 495.146 281.693L494.672 280.62C494.351 279.892 494.332 279.067 494.62 278.325C494.907 277.583 495.477 276.986 496.205 276.664L515.347 268.214C516.075 267.894 516.9 267.875 517.642 268.163C518.384 268.45 518.981 269.02 519.303 269.748L519.776 270.82C520.096 271.548 520.115 272.373 519.827 273.115C519.54 273.857 518.97 274.454 518.243 274.776Z" fill="#CCCCCC"/>
<path d="M533.005 325.553L490.331 291.887C489.991 292.007 489.645 292.109 489.295 292.193C487.788 292.545 486.225 292.577 484.706 292.286C483.187 291.994 481.746 291.387 480.477 290.502C479.199 289.617 478.125 288.469 477.327 287.135C476.529 285.801 476.026 284.312 475.85 282.768C475.564 280.299 476.12 277.807 477.429 275.694C478.738 273.581 480.722 271.973 483.06 271.13C484.519 270.607 486.072 270.398 487.617 270.516C489.162 270.635 490.665 271.079 492.027 271.819C493.389 272.559 494.579 273.578 495.52 274.81C496.461 276.042 497.131 277.458 497.486 278.967C497.596 279.445 497.672 279.931 497.715 280.42L540.196 304.927L550.768 298.84L562.478 314.172L546.065 325.872C544.143 327.23 541.834 327.933 539.482 327.875C537.129 327.818 534.858 327.004 533.005 325.553Z" fill="#FFB8B8"/>
<path d="M567.686 318.947L543.337 302.39L554.78 286.183C556.299 284.031 558.531 282.485 561.08 281.819C563.629 281.153 566.331 281.409 568.709 282.543C571.115 283.69 573.031 285.659 574.112 288.095C575.193 290.531 575.367 293.273 574.603 295.826L567.686 318.947Z" fill="#39DCF9"/>
<path d="M570.391 238.665C564.079 242.985 555.79 247.427 549.342 242.825C545.109 239.805 543.775 234.21 545.492 229.301C548.579 220.472 557.062 216.586 565.172 213.606C575.717 209.733 587.198 206.652 598.083 209.426C608.968 212.2 618.589 222.739 616.624 233.799C615.044 242.693 606.654 250.094 607.845 259.049C609.044 268.06 619.179 272.804 628.126 274.415C637.073 276.026 647.086 276.543 653.517 282.97C661.72 291.169 659.672 305.823 651.953 314.48C644.234 323.137 632.586 327.06 621.299 329.727C606.345 333.261 590.17 335.119 575.967 329.253C561.764 323.387 550.712 307.599 554.826 292.793C556.564 286.54 560.658 281.255 564.614 276.109C568.57 270.963 572.578 265.583 574.087 259.27C575.345 254.01 574.414 247.902 570.925 243.955C570.29 243.264 569.891 242.39 569.785 241.459C569.678 240.527 569.869 239.585 570.331 238.769L570.391 238.665Z" fill="#2F2E41"/>
<path d="M109.072 357.998C102.744 360.223 95.9486 360.78 89.3421 359.616C82.7355 358.452 76.5399 355.607 71.3522 351.354C58.1392 340.264 53.9972 321.995 50.6262 305.079L40.6572 255.043L61.5292 269.415C76.5392 279.75 91.8862 290.415 102.279 305.385C112.672 320.355 117.208 340.791 108.858 356.989" fill="#E6E6E6"/>
<path d="M107.288 418.577C109.401 403.19 111.573 387.604 110.091 372.052C108.775 358.24 104.561 344.749 95.9819 333.688C91.4282 327.828 85.8871 322.806 79.6079 318.85C77.9709 317.817 76.4639 320.412 78.0939 321.44C88.9588 328.307 97.3623 338.446 102.093 350.397C107.318 363.687 108.157 378.173 107.257 392.291C106.712 400.828 105.558 409.309 104.395 417.779C104.303 418.162 104.36 418.566 104.555 418.909C104.749 419.252 105.067 419.508 105.443 419.625C105.826 419.728 106.235 419.676 106.58 419.48C106.926 419.284 107.18 418.959 107.288 418.577Z" fill="#F2F2F2"/>
<path d="M86.941 391.348C84.2267 395.474 80.4957 398.831 76.1073 401.096C71.719 403.361 66.8212 404.457 61.886 404.28C49.203 403.678 38.629 394.826 29.111 386.422L0.958008 361.564L19.591 360.673C32.991 360.032 46.736 359.433 59.498 363.566C72.26 367.699 84.031 377.642 86.365 390.853" fill="#E6E6E6"/>
<path d="M113.258 427.422C103.09 409.432 91.2968 389.436 70.2228 383.045C64.3638 381.274 58.2202 380.64 52.1228 381.176C50.2008 381.342 50.6798 384.305 52.5988 384.139C62.8197 383.29 73.0208 385.989 81.4848 391.781C89.6298 397.325 95.9718 405.033 101.339 413.207C104.627 418.213 107.572 423.432 110.518 428.644C111.459 430.31 114.21 429.108 113.258 427.422Z" fill="#F2F2F2"/>
<path d="M129.55 446.36C129.207 442.39 127.782 438.591 125.429 435.375C123.077 432.159 119.887 429.651 116.207 428.123V417.722H98.7619V428.45C95.2633 430.053 92.2523 432.556 90.0361 435.702C87.8198 438.848 86.4775 442.526 86.146 446.36L82.0439 494.043H133.652L129.55 446.36Z" fill="#F2F2F2"/>
</g>
<defs>
<clipPath id="clip0_6842_41">
<rect width="692" height="499.877" fill="white"/>
</clipPath>
</defs>
</svg>
