<svg width="938" height="604" viewBox="0 0 938 604" fill="none" xmlns="http://www.w3.org/2000/svg">
<g clip-path="url(#clip0_6842_198)">
<path d="M680.584 566.656L675.711 506.08L661.785 570.137C661.785 570.137 661.969 586.297 662.43 604H680.27C680.872 583.764 680.584 566.656 680.584 566.656ZM429.99 588.199C428.619 582.534 427.65 576.78 427.092 570.978L425.142 550.023C424.323 544.284 423.481 539.228 422.634 534.765C416.426 502.942 410.018 501.791 410.018 501.791C409.743 502.002 409.475 502.236 409.199 502.476C408.446 503.161 407.745 503.901 407.101 504.69C396.895 517.663 389.971 551.309 386.333 573.629C384.324 585.959 383.323 594.83 383.323 594.83C383.323 594.83 384.233 598.61 385.473 604H432.048C431.872 598.679 431.183 593.388 429.99 588.199Z" fill="#F2F2F2"/>
<path d="M796.22 0H141.78C63.8 0 0 63.8 0 141.78V462.22C0 540.2 63.8 604 141.78 604H349.202L346.525 591.399C346.525 591.399 339.641 546.971 346.525 512.333C348.748 501.466 350.274 490.467 351.092 479.405C351.953 466.916 353.995 454.536 357.189 442.432C357.371 441.733 357.575 441.041 357.765 440.344C356.086 439.888 355.315 439.523 355.705 439.292C356.781 438.657 357.372 436.712 357.667 434.242C359.501 417.897 362.998 401.782 368.104 386.147C361.147 390.515 356.529 390.978 353.504 389.287C342.879 386.384 347.29 362.487 347.29 362.487C347.29 362.487 353.894 310.797 356.087 292.08C357.348 281.322 373.507 275.226 387.811 271.916C389.318 268.683 390.403 265.426 389.714 262.009C389.668 261.779 389.601 261.556 389.54 261.331C387.721 257.291 384.024 253.968 382.637 249.785C382.022 248.659 381.589 247.443 381.354 246.182C380.124 239.01 386.831 232.814 388.764 225.916C386.792 224.011 385.32 221.649 384.477 219.04C381.53 212.997 382.967 205.743 392.429 200.142C394.318 199.024 396.319 198.037 398.353 197.091C399.097 196.61 399.907 196.238 400.758 195.988C407.528 192.925 414.333 189.962 418.385 184C419.428 182.464 420.343 180.683 422.031 179.876C422.827 179.536 423.678 179.345 424.543 179.314C437.588 178.312 449.4 189.499 462.383 187.896C466.317 187.41 470.332 185.756 474.107 186.946C476.587 187.729 478.523 189.634 480.191 191.605C484.728 197.022 488.014 203.373 489.814 210.206C491.613 217.039 491.882 224.185 490.601 231.134C488.955 239.687 484.951 248.502 487.836 256.731C489.956 262.778 495.631 267.685 495.671 274.081C495.704 279.344 491.968 283.544 488.359 287.639C488.828 288.119 489.286 288.612 489.731 289.119C498.551 299.169 496.885 307.746 495.641 311.18V311.182L491.105 354.956L487.28 384.323C487.28 384.323 486.334 396.375 477.426 399.018C474.83 400.218 471.431 400.535 466.962 399.175C464.062 398.293 461.619 397.411 459.545 396.553C461.505 402.813 464.879 415.593 464.331 427.997C463.566 445.317 465.861 446.822 465.861 446.822C465.717 447 465.554 447.161 465.374 447.303C474.461 467.379 474.544 487.977 465.096 508.568C454.386 531.911 465.861 586.128 465.861 586.128C465.861 586.128 466.678 594.585 467.045 604H631.333C628.72 579.077 625.581 554.127 624.186 551.338C621.887 546.74 624.806 470.993 625.896 444.682C625.426 444.564 624.959 444.439 624.493 444.307C623.778 444.102 623.071 443.871 622.373 443.614C622.34 444.953 622.481 446.291 622.793 447.594C623.761 449.85 621.442 451.508 617.501 452.64C619.793 463.826 622.624 484.64 613.046 488.673C603.193 492.822 602.996 467.622 603.537 454.486C602.294 454.532 601.048 454.556 599.817 454.556C587.98 454.556 603.298 317.391 602.602 308.339C601.906 299.288 608.172 262.385 608.172 262.385C608.172 262.385 610.261 254.726 616.527 253.334C622.793 251.942 652.733 234.534 652.733 234.534C654.417 232.169 656.546 230.154 659 228.602V227.572C659.781 226.844 660.611 226.172 661.485 225.56C661.12 219.477 660.297 211.628 659.697 206.325C656.332 202.896 654.058 198.546 653.164 193.825C651.881 192.824 650.663 191.742 649.518 190.586C646.643 187.29 644.993 183.102 644.848 178.73C644.72 174.388 645.349 170.057 646.705 165.93C647.06 164.559 647.602 163.244 648.318 162.022C649.302 160.605 650.538 159.38 651.963 158.408C652.386 158.095 652.823 157.801 653.258 157.505C654.181 155.712 655.535 154.176 657.198 153.034C660.751 150.7 665.324 150.891 669.574 150.997L669.766 150.998C670.555 150.871 671.346 150.767 672.14 150.684C672.604 150.592 673.031 150.366 673.369 150.035C673.707 149.704 673.941 149.281 674.043 148.819L675.769 150.477C676.632 150.464 677.495 150.479 678.357 150.521C678.739 149.647 679.188 148.804 679.7 148L680.646 150.698C681.512 150.79 682.375 150.907 683.233 151.056L685.263 149.442C685.413 149.323 685.953 151.085 686.224 151.69C686.69 151.81 687.154 151.937 687.614 152.08C688.334 152.047 689.134 151.912 689.577 151.92C692.026 151.837 694.45 152.441 696.574 153.664C698.429 155.013 699.951 156.769 701.022 158.797C703.757 163.125 705.456 168.026 705.986 173.118C707.315 174.96 708.253 177.055 708.74 179.273C709.89 186.263 703.247 192.103 701.93 199.063C701.229 202.776 702.03 206.889 700.139 210.16C699.311 211.478 698.226 212.615 696.949 213.504C696.194 214.067 695.407 214.586 694.592 215.057C694.636 219.267 695.119 223.462 696.033 227.572L696.929 231.007C698.482 232.133 699.997 233.309 701.473 234.534C701.473 234.534 720.969 242.89 727.932 247.067C734.052 250.74 740.708 251.188 742.702 255.972L743.25 256.119C743.25 256.119 750.212 333.405 750.909 346.634C751.606 359.863 759.96 441.327 758.568 444.808C758.052 446.097 754.768 447.575 750.804 448.751C753.118 459.326 756.854 482.323 746.731 486.585C736.47 490.905 736.681 463.392 737.293 450.828C735.924 450.705 735.027 450.347 734.895 449.682C734.781 449.117 734.418 446.56 733.894 442.662C733.026 442.797 732.127 442.936 731.169 443.082L730.579 443.17C739.407 470.938 719.856 544.582 716.095 558.997C714.13 566.529 712.011 585.154 710.1 604H796.221C874.2 604 938 540.2 938 462.22V141.78C938 63.8 874.2 0 796.22 0Z" fill="#F2F2F2"/>
<path d="M210 255.45C262.467 255.45 305 216.745 305 169C305 121.255 262.467 82.55 210 82.55C157.533 82.55 115 121.255 115 169C115 216.745 157.533 255.45 210 255.45Z" fill="#3F3D56"/>
<path d="M366.5 451.5C366.5 451.5 398.5 429.5 398.5 419.5C398.5 409.5 420.5 344.5 432.5 373.5C444.5 402.5 415.5 443.5 415.5 443.5C415.5 443.5 383.5 501.5 364.5 511.5C345.5 521.5 329.5 515.5 329.5 515.5V488.5L347.782 461.443C349.851 458.381 352.639 455.873 355.902 454.14C359.166 452.406 362.805 451.5 366.5 451.5Z" fill="#FFB9B9"/>
<path d="M275.544 298.336C275.544 298.336 323.5 313.5 328.5 320.5C333.5 327.5 335.5 315.5 349.5 361.5C363.5 407.5 367 452 367 452C367 452 332.5 463.5 336.5 508.5C340.5 553.5 330.5 602.5 330.5 602.5H318.016L290.5 517.5L323.5 388.5C323.5 388.5 276.587 309.173 275.544 298.336Z" fill="#575A89"/>
<path d="M259.5 256.5C292.637 256.5 319.5 229.637 319.5 196.5C319.5 163.363 292.637 136.5 259.5 136.5C226.363 136.5 199.5 163.363 199.5 196.5C199.5 229.637 226.363 256.5 259.5 256.5Z" fill="#FFB9B9"/>
<path d="M282.5 241.5C282.5 241.5 265.5 297.5 280.5 305.5C295.5 313.5 312.5 349.5 312.5 349.5L286.5 378.5H226.5L199.5 348.5L188.5 297.5L203.5 285.5C203.5 285.5 219.5 245.5 219.5 224.5C219.5 203.5 282.5 241.5 282.5 241.5Z" fill="#FFB9B9"/>
<path d="M287.5 303.5C287.5 303.5 275.5 300.5 282.5 312.5C289.5 324.5 296.5 346.5 271.5 347.5C246.5 348.5 221.5 335.5 213.5 308.5C205.5 281.5 202.5 283.5 199.5 284.5C196.5 285.5 164.5 318.5 164.5 318.5L175.5 380.5L179.5 602.5H325.5C325.5 602.5 331.5 538.5 321.5 523.5C311.5 508.5 330.5 470.5 330.5 470.5C330.5 470.5 347.5 444.5 334.5 394.5C321.5 344.5 292.5 303.5 287.5 303.5Z" fill="#39DCF9"/>
<path d="M206.5 284.5C206.5 284.5 191.5 277.5 178.5 289.5C165.5 301.5 136.5 311.5 136.5 317.5C136.5 323.5 161.5 494.5 144.5 524.5C127.5 554.5 109.5 602.5 109.5 602.5H192.913C192.913 602.5 206.5 552.5 220.5 525.5C234.5 498.5 233.5 422.5 229.5 399.5C225.5 376.5 206.5 284.5 206.5 284.5Z" fill="#575A89"/>
<path d="M118.5 549.5L123.37 602.5H177.417L172.5 536.5L118.5 549.5Z" fill="#FFB9B9"/>
<path d="M364.5 521.5L377.5 602.5H666.5L691.5 439.5L364.5 521.5Z" fill="#3F3D56"/>
<path d="M702.5 428.5L705.5 443.5L331.5 533.5V520.5L702.5 428.5Z" fill="#3F3D56"/>
<path d="M544.5 455.5L542.5 472.5L564.5 469.5L555.5 452.5L544.5 455.5Z" fill="#3F3D56"/>
<path d="M423.5 283.5C423.5 283.5 467.5 280.5 479.5 314.5C491.5 348.5 519.5 409.5 530.5 418.5C541.5 427.5 553.5 451.5 551.5 459.5" stroke="#3F3D56" stroke-width="5" stroke-miterlimit="10"/>
<path d="M430 283C430 287.694 425.008 291.5 417 291.5C408.992 291.5 405 287.694 405 283C405 278.306 408.992 274.5 417 274.5C425.008 274.5 430 278.306 430 283Z" fill="#39DCF9"/>
<path d="M356 439C356 439 363.5 407.5 349.5 361.5C335.5 315.5 333.5 327.5 328.5 320.5C323.5 313.5 275.544 298.336 275.544 298.336C275.887 301.897 281.182 312.853 288.139 325.96C286.887 321.236 284.989 316.706 282.5 312.5C275.5 300.5 287.5 303.5 287.5 303.5C292.5 303.5 321.5 344.5 334.5 394.5C347.5 444.5 330.5 470.5 330.5 470.5L356 439Z" fill="#575A89"/>
<path d="M276 298C276 298 281.92 320.458 286.96 323.729C292 327 321.89 358.054 321.89 358.054L318 333L302 309L297.744 305.912L276 298Z" fill="#575A89"/>
<path opacity="0.1" d="M143 367L144.394 315.5C144.394 315.5 111.5 329.5 108.5 389.5C105.5 449.5 113.5 562.5 124.5 563.5C135.5 564.5 187.5 552.5 187.5 552.5C187.5 552.5 195.5 407.5 192.5 388.5C189.5 369.5 143 367 143 367Z" fill="black"/>
<path d="M145.5 315.5H137.394C137.394 315.5 104.5 329.5 101.5 389.5C98.4999 449.5 106.5 562.5 117.5 563.5C128.5 564.5 180.5 552.5 180.5 552.5C180.5 552.5 188.5 407.5 185.5 388.5C182.5 369.5 145.5 315.5 145.5 315.5Z" fill="#575A89"/>
<path d="M188 250C222.242 250 250 218.884 250 180.5C250 142.116 222.242 111 188 111C153.758 111 126 142.116 126 180.5C126 218.884 153.758 250 188 250Z" fill="#3F3D56"/>
<path d="M232.5 237C239.404 237 245 228.717 245 218.5C245 208.283 239.404 200 232.5 200C225.596 200 220 208.283 220 218.5C220 228.717 225.596 237 232.5 237Z" fill="#FFB9B9"/>
<path d="M126 162C154.167 162 177 139.167 177 111C177 82.8335 154.167 60 126 60C97.8335 60 75 82.8335 75 111C75 139.167 97.8335 162 126 162Z" fill="#3F3D56"/>
<path d="M132.592 151.857C125.183 155.627 116.965 157.529 108.653 157.396C100.341 157.264 92.1874 155.101 84.9022 151.097C77.6171 147.093 71.4213 141.369 66.8543 134.423C62.2873 127.477 59.4876 119.52 58.6991 111.244C57.6096 118.388 58.0509 125.681 59.9936 132.641C61.9362 139.602 65.336 146.069 69.9675 151.616C74.599 157.163 80.3564 161.662 86.8583 164.815C93.3602 167.969 100.458 169.704 107.681 169.907C114.905 170.11 122.089 168.775 128.757 165.991C135.425 163.207 141.426 159.038 146.361 153.759C151.296 148.481 155.053 142.213 157.383 135.373C159.713 128.533 160.562 121.275 159.875 114.082C158.662 122.095 155.553 129.703 150.808 136.273C146.063 142.844 139.818 148.186 132.592 151.857Z" fill="#3F3D56"/>
<path d="M98.0199 119.43C92.8986 112.882 89.4557 105.181 87.991 96.998C86.5264 88.8151 87.0844 80.3981 89.6165 72.4801C92.1486 64.5621 96.578 57.3831 102.519 51.5684C108.46 45.7537 115.732 41.4795 123.703 39.118C116.483 39.4198 109.411 41.2525 102.953 44.4945C96.4954 47.7365 90.8005 52.3139 86.2457 57.9233C81.691 63.5328 78.3803 70.0461 76.5332 77.0318C74.6861 84.0174 74.3446 91.3159 75.5315 98.4435C76.7183 105.571 79.4064 112.365 83.4176 118.375C87.4287 124.385 92.6714 129.475 98.7981 133.305C104.925 137.136 111.796 139.621 118.955 140.596C126.115 141.57 133.4 141.012 140.328 138.958C132.231 139.305 124.168 137.714 116.809 134.317C109.451 130.921 103.009 125.817 98.0199 119.43Z" fill="#3F3D56"/>
<path d="M263 176C282.882 176 299 164.359 299 150C299 135.641 282.882 124 263 124C243.118 124 227 135.641 227 150C227 164.359 243.118 176 263 176Z" fill="#3F3D56"/>
</g>
<defs>
<clipPath id="clip0_6842_198">
<rect width="938" height="604" fill="white"/>
</clipPath>
</defs>
</svg>
